<?xml version="1.0" encoding="utf-8"?>
<!-- Generator: Adobe Illustrator 25.2.1, SVG Export Plug-In . SVG Version: 6.00 Build 0)  -->
<svg version="1.1" id="Capa_1" xmlns="http://www.w3.org/2000/svg" xmlns:xlink="http://www.w3.org/1999/xlink" x="0px" y="0px"
	 viewBox="0 0 80.54 77.96" style="enable-background:new 0 0 80.54 77.96;" xml:space="preserve">
<style type="text/css">
	.st0{fill:#FFFFFF;}
</style>
<g>
	<path class="st0" d="M78.5,40.75c-1.13-0.98-2.54-1.47-3.92-1.47c-1.67,0-3.33,0.69-4.52,2.04L59.8,53.08l-8.88,10.19l-0.36-0.33
		l-8.01-7.09l-0.75-0.66c-1.18-1.05-2.66-1.56-4.14-1.56c-1.72,0-3.45,0.71-4.67,2.1c-0.04,0.04-0.08,0.09-0.12,0.13
		c-0.97,1.16-1.45,2.58-1.45,4c0,1.73,0.71,3.45,2.1,4.68l0.04,0.03l7.56,6.7l5.8,5.14c1.18,1.04,2.66,1.55,4.13,1.55
		c0.8,0,1.59-0.16,2.35-0.46c0.92-0.33,1.78-0.89,2.47-1.68l23.2-26.63C81.24,46.71,80.97,42.91,78.5,40.75z"/>
	<path class="st0" d="M49.7,54.39c0.23,0.2,0.46,0.41,0.69,0.61l3.7-4.24v0.17l1.4-1.6l5.49-6.3v-0.17V6.74
		c0-3.73-3.02-6.74-6.74-6.74H6.74C3.02,0,0,3.01,0,6.74v58.25c0,3.72,3.02,6.74,6.74,6.74h26.12h0.16l-3.24-2.87l-0.04-0.04
		l-0.02-0.01c-1.2-1.07-2.17-2.36-2.85-3.78h-0.12c-0.76-1.6-1.17-3.37-1.17-5.19c0-1.2,0.18-2.4,0.53-3.54H15.16
		c-1.89,0-3.45-1.54-3.45-3.45c0-0.94,0.39-1.81,1.02-2.43c0.62-0.63,1.49-1.02,2.43-1.02H31.6c1.82-1.05,3.91-1.62,6.06-1.62
		c1.66,0,2.98,0.36,3.44,0.5c1.09,0.33,1.97,0.76,2.6,1.12C45.7,51.08,47.7,52.74,49.7,54.39z M49.05,44.73
		c-0.62,0.63-1.49,1.02-2.44,1.02H15.16c-1.89,0-3.45-1.55-3.45-3.45c0-0.95,0.39-1.81,1.02-2.43c0.62-0.63,1.49-1.02,2.43-1.02
		h31.45c1.9,0,3.45,1.55,3.45,3.45C50.06,43.25,49.67,44.11,49.05,44.73z M12.66,16.61c0.62-0.62,1.49-1.01,2.43-1.01h31.45
		c1.9,0,3.45,1.55,3.45,3.45c0,0.94-0.38,1.81-1.01,2.44c-0.62,0.62-1.49,1.01-2.44,1.01H15.09c-1.89,0-3.45-1.55-3.45-3.45
		C11.64,18.1,12.03,17.24,12.66,16.61z M12.65,28.05c0.62-0.62,1.49-1.01,2.44-1.01h31.45c1.89,0,3.45,1.54,3.45,3.45
		c0,0.94-0.39,1.81-1.02,2.43c-0.62,0.63-1.49,1.01-2.43,1.01H15.09c-1.89,0-3.45-1.54-3.45-3.44
		C11.64,29.53,12.03,28.67,12.65,28.05z"/>
</g>
</svg>
