<?xml version="1.0" encoding="utf-8"?>
<!-- Generator: Adobe Illustrator 25.2.1, SVG Export Plug-In . SVG Version: 6.00 Build 0)  -->
<svg version="1.1" id="Capa_1" xmlns="http://www.w3.org/2000/svg" xmlns:xlink="http://www.w3.org/1999/xlink" x="0px" y="0px"
	 viewBox="0 0 100.8 73.2" style="enable-background:new 0 0 100.8 73.2;" xml:space="preserve">
<style type="text/css">
	.st0{fill:#FFFFFF;}
</style>
<g>
	<path class="st0" d="M75.16,0.19c-8.57-0.12-16.64,4.03-21.52,11.09l-0.41,0.6c-0.93,0-1.85-0.12-2.78-0.12
		c-0.94,0-1.72,0-2.49,0.08H47.8l-0.24-0.38C42.76,4.31,34.72,0.01,26.1,0C11.45,0.25-0.24,12.32,0,26.98
		c-0.16,12.92,8.95,24.1,21.64,26.56h0.12C26.1,65.03,37.19,73.2,50.19,73.2c9.06,0,17.19-3.96,22.73-10.25
		c0.25-0.26,0.48-0.53,0.69-0.8c2.12-2.51,3.84-5.36,5.07-8.48c12.73-2.22,22.02-13.24,22.11-26.14
		C101.23,12.9,89.77,0.68,75.16,0.19z M19.88,20.2c-0.74-0.8-0.8-2.01-0.13-2.88c0.74-0.97,2.14-1.16,3.1-0.41l4.02,3.62
		c0.38,0.36,0.65,1.06,0.71,1.58c3-3.34,6.81-5.88,10.94-7.62c-0.12-0.13-0.38-0.56-0.51-0.67c-1.62-1.48-3.51-2.64-5.55-3.41
		l-0.26,1.56c-0.08,0.87-0.84,1.52-1.71,1.46c-0.84-0.13-1.46-0.86-1.46-1.71l0.33-1.83c-0.01-0.11-0.01-0.2,0-0.31
		c-0.93-0.16-1.87-0.24-2.82-0.24c-0.88,0-1.77,0.07-2.64,0.2c0.13,0.21,0.21,0.45,0.23,0.7l0.19,1.83
		c0.08,0.88-0.57,1.67-1.46,1.75s-1.67-0.56-1.75-1.44l-0.18-1.83c-0.01-0.11-0.01-0.21,0-0.31c-2.01,0.72-3.87,1.8-5.48,3.19
		c0.13,0.06,0.26,0.13,0.37,0.23l1.41,1.15c0.63,0.6,0.73,1.58,0.2,2.27c-0.58,0.67-1.59,0.73-2.26,0.16l-1.42-1.18
		c-0.18-0.16-0.32-0.36-0.43-0.57c-1.41,1.65-2.52,3.53-3.26,5.59h0.31l1.81,0.3c0.85,0.19,1.42,0.98,1.33,1.85
		c-0.19,0.86-0.99,1.43-1.86,1.34l-1.81-0.31c-0.2-0.04-0.39-0.12-0.57-0.23c-0.19,1.1-0.29,2.21-0.29,3.32
		C8.98,28.17,9.04,29,9.16,29.83c0.27-0.24,0.62-0.36,0.97-0.36h1.83c0.91,0,1.66,0.7,1.72,1.6c-0.08,0.88-0.82,1.56-1.72,1.55
		h-1.83c-0.12,0.02-0.25,0.02-0.37,0c1.43,5,4.98,9.12,9.7,11.29l0.36,0.16v-1.24c0,1.33,0.08,2.61,0.25,3.89l-0.32-0.11
		c-8.09-3.2-13.36-11.08-13.24-19.78c0-11.61,8.96-21.02,20.07-21.2c5.67,0.04,11.04,2.53,14.73,6.84l0.39,0.57
		c-6.54,1.9-12.18,5.93-16.08,11.32c-0.62,0.07-1.24-0.13-1.71-0.55L19.88,20.2z M62.41,64.33C50.24,70.93,35,66.42,28.39,54.24
		c-0.38-0.69-0.74-1.41-1.04-2.14c-0.24-0.6-0.39-0.99-0.66-1.71c-0.25-0.72-0.48-1.47-0.66-2.22c-0.04-0.12-0.07-0.23-0.1-0.35
		c-0.17-0.72-0.3-1.46-0.42-2.18c-0.18-1.24-0.27-2.51-0.27-3.76c-0.05-10.62,6.51-20.15,16.43-23.91c0.81-0.31,1.65-0.56,2.48-0.78
		l0.35-0.1c0.62-0.16,1.33-0.31,1.95-0.39c0.61-0.08,1.19-0.23,1.87-0.23h2.07c13.98,0.08,25.24,11.48,25.15,25.45
		C75.66,51.26,70.61,59.88,62.41,64.33z M77.25,23.7c-0.2,0.18-0.47,0.32-0.74,0.42c-0.11,0.04-0.23,0.07-0.35,0.08
		c-0.45,0.1-0.94,0.07-1.36-0.1c-0.13-0.04-0.25-0.1-0.36-0.16c-0.3-0.38-0.6-0.75-0.9-1.12c-0.04-0.14-0.07-0.29-0.07-0.43
		c-0.04-0.51,0.12-1.07,0.39-1.54c0.04-0.06,0.07-0.11,0.11-0.16c0.05-0.08,0.11-0.16,0.17-0.21c0.06-0.07,0.12-0.13,0.18-0.19
		l4.07-3.55c0.93-0.81,2.34-0.7,3.15,0.23c0.8,0.93,0.7,2.34-0.24,3.15L77.25,23.7z M80.74,46.88l-0.12,0.01l-0.35,0.04
		c0.12-0.92,0.2-1.85,0.25-2.79l0.37-0.02c4.73-2.08,8.33-6.11,9.87-11.05c-0.13,0.02-0.25,0.02-0.38,0h-1.84
		c-0.87-0.01-1.58-0.73-1.58-1.6c0-0.01,0-0.01,0-0.02v-0.12c0.07-0.87,0.84-1.53,1.71-1.47h1.85c0.35,0.01,0.69,0.13,0.97,0.36
		c0.3-1.92,0.3-3.87,0-5.79c-0.18,0.11-0.37,0.18-0.57,0.23l-1.84,0.27c-0.76,0.04-1.46-0.48-1.65-1.23
		c-0.23-0.87,0.31-1.75,1.17-1.97l1.83-0.25c0.11-0.02,0.21-0.02,0.31,0c-0.7-2.07-1.79-3.98-3.18-5.66
		c-0.1,0.23-0.25,0.43-0.44,0.58l-1.4,1.16c-0.7,0.55-1.71,0.44-2.27-0.25c-0.56-0.69-0.44-1.71,0.25-2.27l1.33-1.13
		c0.12-0.1,0.24-0.18,0.38-0.23c-1.58-1.37-3.39-2.45-5.35-3.18c0.01,0.1,0.01,0.19,0,0.29l-0.2,1.83c-0.11,0.88-0.9,1.52-1.78,1.42
		c-0.88-0.1-1.52-0.9-1.42-1.78l0.2-1.83c0.06-0.26,0.18-0.51,0.35-0.72c-0.87-0.14-1.75-0.21-2.63-0.24
		c-0.95-0.01-1.9,0.05-2.84,0.19c0.01,0.1,0.01,0.2,0,0.3l0.11,1.85c0.06,0.88-0.61,1.66-1.49,1.73c-0.88,0.06-1.66-0.61-1.72-1.49
		l-0.12-1.6c-2.07,0.73-3.96,1.83-5.61,3.26c-0.07,0.06-0.17,0.14-0.27,0.24c-0.16,0.13-0.31,0.27-0.42,0.38
		c-0.96-0.42-1.95-0.79-2.95-1.1l0.51-0.74c3.75-4.19,9.12-6.55,14.74-6.51c11.13,0.19,19.85,9.74,19.66,21.36
		C94.16,36,88.82,43.76,80.74,46.88z"/>
	<path class="st0" d="M68.86,45.45l2.48,0.12c0.33,0.01,0.66,0.12,0.93,0.3c0.25-1.36,0.37-2.75,0.36-4.13
		c0.01-1.15-0.07-2.28-0.24-3.41c-0.37,0.51-0.95,0.81-1.59,0.82h-2.47c-0.51,0-1.01-0.21-1.37-0.58c-0.37-0.37-0.57-0.86-0.57-1.38
		c0-1.07,0.87-1.93,1.95-1.95h2.42c0.35,0,0.69,0.11,0.99,0.29c-0.81-3.02-2.23-5.85-4.19-8.3c-0.1,0.42-0.33,0.8-0.68,1.07
		l-1.96,1.52c-0.86,0.66-2.08,0.5-2.73-0.36c-0.66-0.85-0.5-2.08,0.36-2.73l1.95-1.52c0.25-0.19,0.55-0.31,0.87-0.36
		c-2.36-2.22-5.19-3.89-8.27-4.91c0.16,0.29,0.24,0.6,0.24,0.92v2.55c0,1.07-0.87,1.95-1.95,1.95c-1.07,0-1.95-0.87-1.95-1.95v-2.48
		c-0.02-0.68,0.31-1.34,0.88-1.71c-1.01-0.18-2.04-0.3-3.07-0.35h-0.8c-1.01,0-2.03,0.07-3.03,0.21l-0.57,0.1l-0.73,0.12
		c0.16,0.13,0.27,0.29,0.37,0.47c0.2,0.26,0.33,0.58,0.38,0.92l0.27,2.46c0.01,0.08,0.01,0.17,0,0.24c0.01,0.99-0.73,1.81-1.71,1.93
		c-0.42,0.05-0.84-0.05-1.19-0.26c-0.23-0.13-0.42-0.3-0.58-0.5c-0.2-0.27-0.33-0.61-0.37-0.94L43,21.15
		c-0.04-0.17-0.04-0.35,0-0.51c0.02-0.16,0.06-0.31,0.12-0.47l-0.27,0.11l-0.58,0.21c-2.45,1-4.69,2.44-6.65,4.23
		c0.26,0.1,0.5,0.25,0.7,0.44l1.71,1.71c0.1,0.08,0.17,0.18,0.24,0.27c0.25,0.37,0.36,0.81,0.32,1.25c-0.1,1.09-1.05,1.89-2.12,1.79
		c-0.45-0.06-0.86-0.25-1.18-0.56l-1.71-1.72c-0.17-0.17-0.3-0.36-0.39-0.57c-1.86,2.27-3.26,4.87-4.14,7.66h2.65
		c0.61,0,1.17,0.27,1.54,0.75c0.26,0.35,0.41,0.76,0.41,1.19c0,1.09-0.87,1.96-1.95,1.96h-2.47c-0.27-0.01-0.54-0.07-0.79-0.18
		c-0.12,0.98-0.19,1.96-0.19,2.94c0,0.76,0.04,1.53,0.12,2.28c0.06,0.54,0.13,1.04,0.2,1.53h2.88c1-0.02,1.87,0.72,2.02,1.72v0.13
		c0.04,1.07-0.8,1.98-1.86,2.03h-2.1c0.08,0.31,0.2,0.58,0.3,0.87c0.47,1.25,1.04,2.45,1.72,3.59c2.71,4.55,6.97,7.97,12.01,9.63
		C55.07,67.27,67.53,61,71.35,49.43h-0.19l-2.47-0.12l-0.02,0.02c-1.07-0.05-1.9-0.97-1.85-2.04
		C66.86,46.22,67.78,45.39,68.86,45.45z M40.4,30c-0.41-1-0.04-2.16,0.87-2.75c0.29-0.19,0.62-0.31,0.96-0.35
		c0.86-0.12,1.72,0.27,2.18,1l5.5,8.48c0.14,0.26,0.25,0.54,0.32,0.82h0.21c1.04-0.01,2.07,0.32,2.92,0.93
		c2.23,1.6,2.76,4.72,1.15,6.96c-1.6,2.24-4.72,2.76-6.96,1.15c-2.23-1.6-2.76-4.72-1.15-6.96c-0.12-0.11-0.23-0.23-0.32-0.36
		l-5.49-8.54C40.52,30.27,40.45,30.14,40.4,30z M57.14,57.14c0,1.07-0.87,1.95-1.95,1.95h-9.94c-1.07,0-1.95-0.87-1.95-1.95v-0.87
		c0-1.07,0.87-1.95,1.95-1.95h9.94c1.07,0,1.95,0.87,1.95,1.95V57.14z"/>
	<path class="st0" d="M50.41,44.35c0.12,0.01,0.24,0.01,0.36,0c1.09-0.1,1.87-1.06,1.78-2.14c-0.11-1.09-1.06-1.87-2.14-1.78
		c-0.13-0.01-0.25-0.01-0.37,0c-1.07,0.11-1.87,1.06-1.78,2.15C48.37,43.65,49.33,44.45,50.41,44.35z"/>
</g>
</svg>
