<?xml version="1.0" encoding="utf-8"?>
<!-- Generator: Adobe Illustrator 25.2.1, SVG Export Plug-In . SVG Version: 6.00 Build 0)  -->
<svg version="1.1" id="Capa_1" xmlns="http://www.w3.org/2000/svg" xmlns:xlink="http://www.w3.org/1999/xlink" x="0px" y="0px"
	 viewBox="0 0 98.54 70.31" style="enable-background:new 0 0 98.54 70.31;" xml:space="preserve">
<style type="text/css">
	.st0{fill:#FFFFFF;}
</style>
<g>
	<g>
		<path class="st0" d="M37.29,65.41l-15.75,4.62c-2.86,0.84-5.72-0.3-6.38-2.55L0.13,16.26c-0.65-2.24,1.13-4.75,4-5.58l19.06-5.59
			v52.53c0,4.3,4.02,7.8,8.98,7.8H37.29z"/>
		<path class="st0" d="M98.4,16.26L83.37,67.48c-0.66,2.24-3.52,3.38-6.38,2.55l-15.75-4.62h5.12c4.95,0,8.97-3.5,8.97-7.8V5.08
			l19.06,5.59C97.27,11.52,99.06,14.02,98.4,16.26z"/>
	</g>
	<g>
		<path class="st0" d="M42.68,29.81v0.37c0,0.32-0.27,0.59-0.6,0.59h-2.04c-0.32,0-0.6-0.26-0.6-0.59v-0.37
			c0-0.28,0.21-0.52,0.48-0.58c0.04-0.01,0.07-0.01,0.12-0.01h2.04C42.41,29.22,42.68,29.48,42.68,29.81z"/>
		<path class="st0" d="M44.57,33.94h9.39c-0.63,0.42-1.99,0.44-2.2,0.44h-4.99C46.57,34.38,45.2,34.35,44.57,33.94z"/>
		<path class="st0" d="M42.95,32.2h12.64v0.01c-0.05,0.05-0.2,0.22-0.39,0.43H43.33c-0.18-0.21-0.32-0.38-0.38-0.43V32.2z"/>
		<path class="st0" d="M43.16,26.13h-1.59c0.17-0.37,0.47-1.07,0.84-1.8c0.74-1.46,1.17-1.98,1.34-2.16h5.45v0.25h-0.84
			c-0.1,0-0.18,0.08-0.18,0.17c0,0.05,0.02,0.09,0.05,0.13c0.03,0.03,0.07,0.05,0.13,0.05h1.82c0.05,0,0.09-0.02,0.13-0.05
			c0.03-0.03,0.05-0.07,0.05-0.13c0-0.08-0.07-0.17-0.18-0.17h-0.84v-0.25h5.44c0.18,0.18,0.61,0.7,1.34,2.16
			c0.38,0.73,0.68,1.44,0.85,1.8h-1.6V25.9c0-0.35-0.27-0.63-0.62-0.63h-0.59c0.09-0.12,0.16-0.27,0.16-0.45v-1.16
			c0-0.18-0.15-0.31-0.31-0.31h-1.64c-0.17,0-0.31,0.14-0.31,0.31v1.16c0,0.18,0.06,0.34,0.17,0.45h-0.65
			c-0.35,0-0.63,0.28-0.63,0.63v0.22c-0.52-0.06-1.09-0.09-1.67-0.1c-0.59,0.01-1.14,0.04-1.67,0.1V25.9c0-0.35-0.28-0.63-0.63-0.63
			h-0.65c0.1-0.12,0.17-0.27,0.17-0.45v-1.16c0-0.18-0.15-0.31-0.31-0.31h-1.64c-0.18,0-0.31,0.14-0.31,0.31v1.16
			c0,0.18,0.06,0.34,0.16,0.45h-0.59c-0.35,0-0.63,0.28-0.63,0.63V26.13z"/>
		<path class="st0" d="M59.09,29.81v0.37c0,0.32-0.26,0.59-0.59,0.59h-2.04c-0.32,0-0.6-0.26-0.6-0.59v-0.37
			c0-0.32,0.27-0.59,0.6-0.59h2.04c0.04,0,0.07,0,0.12,0.01C58.89,29.28,59.09,29.52,59.09,29.81z"/>
		<path class="st0" d="M66.37,0h-34.2c-2.99,0-5.41,1.9-5.41,4.23v53.38c0,2.34,2.42,4.23,5.41,4.23h34.2c2.99,0,5.41-1.9,5.41-4.23
			V4.23C71.77,1.9,69.35,0,66.37,0z M60.85,39.54c0,0.68-0.57,1.25-1.25,1.25h-1.08c-0.68,0-1.25-0.57-1.25-1.25v-0.76
			c-0.21,0.01-0.41,0.02-0.62,0.03c-1.08,0.05-2.19,0.09-3.33,0.13h-0.12c-0.17,0.01-0.34,0.01-0.5,0.02h-0.85l-0.01,0.01h-0.81
			c-0.09,0.01-0.2,0.01-0.3,0.01h-2.94c-0.09,0-0.2,0-0.3-0.01h-0.8l-0.01-0.01h-0.85c-0.17-0.01-0.34-0.01-0.5-0.02h-0.12
			c-1.14-0.03-2.25-0.07-3.33-0.13c-0.21-0.01-0.41-0.02-0.62-0.03v0.76c0,0.68-0.57,1.25-1.25,1.25h-1.08
			c-0.69,0-1.25-0.57-1.25-1.25v-7.83c0-0.92,0.23-1.78,0.63-2.54c0.02-0.04,0.04-0.08,0.06-0.12c0.03-0.05,0.06-0.09,0.09-0.15
			c0.06-0.08,0.14-0.18,0.21-0.27c0.07-0.09,0.15-0.19,0.22-0.28c0.03-0.05,0.07-0.09,0.1-0.14c0.03-0.05,0.07-0.08,0.12-0.13
			c0.03-0.04,0.06-0.08,0.1-0.13l0.22-0.22c0.02-0.02,0.04-0.03,0.06-0.05c0.18-0.16,0.37-0.3,0.56-0.44l0.35-0.58l-1.52-0.27
			c-0.06,0-0.14-0.01-0.2-0.03c-0.25-0.07-0.43-0.31-0.43-0.59v-0.25c0-0.43,0.36-0.78,0.79-0.78h1.1c0.18,0,0.32,0.14,0.32,0.3
			v0.57h0.37c0.45-1.03,1.66-3.65,2.5-4.24c0.12-0.14,0.35-0.22,0.6-0.22c0.16,0,0.29,0.03,0.41,0.08c0.29-0.01,0.64-0.01,1.02-0.03
			c0.13-0.1,0.31-0.17,0.53-0.17c0.19,0,0.36,0.05,0.48,0.14c0.26-0.01,0.53-0.02,0.8-0.03c0.26-0.01,0.52-0.02,0.78-0.03
			c0.1-0.04,0.24-0.07,0.38-0.07c0.13,0,0.24,0.02,0.34,0.05c0.22,0,0.43-0.01,0.6-0.01s0.38,0.01,0.59,0.01
			c0.1-0.03,0.22-0.05,0.35-0.05c0.14,0,0.27,0.03,0.38,0.07c0.25,0.01,0.51,0.02,0.78,0.03c0.26,0.01,0.53,0.02,0.8,0.03
			c0.13-0.08,0.29-0.14,0.48-0.14c0.22,0,0.41,0.06,0.53,0.17c0.38,0.02,0.71,0.02,1.01,0.03c0.13-0.05,0.26-0.08,0.42-0.08
			c0.25,0,0.47,0.08,0.6,0.22c0.85,0.6,2.05,3.22,2.5,4.24h0.37v-0.57c0-0.17,0.15-0.3,0.32-0.3h1.1c0.43,0,0.78,0.35,0.78,0.78
			v0.25c0,0.27-0.17,0.51-0.42,0.59c-0.06,0.02-0.14,0.03-0.2,0.03l-1.52,0.27l0.35,0.58c0.19,0.14,0.38,0.28,0.56,0.44
			c0.02,0.02,0.04,0.03,0.05,0.05c0.08,0.07,0.16,0.15,0.23,0.22c0.04,0.04,0.07,0.08,0.1,0.13c0.04,0.04,0.08,0.07,0.12,0.13
			c0.03,0.04,0.07,0.08,0.1,0.14c0.07,0.09,0.15,0.19,0.22,0.28c0.07,0.09,0.14,0.19,0.21,0.27c0.03,0.05,0.06,0.09,0.09,0.15
			c0.02,0.03,0.04,0.07,0.06,0.12c0.4,0.75,0.63,1.61,0.63,2.54V39.54z"/>
	</g>
</g>
</svg>
