<svg width="104" height="59" viewBox="0 0 104 59" fill="none" xmlns="http://www.w3.org/2000/svg">
<g clip-path="url(#clip0_202_188)">
<path d="M102.659 3.15206C102.455 2.85301 102.228 2.57822 101.968 2.31151C101.667 1.9963 101.334 1.70534 100.976 1.45479C100.569 1.15575 100.139 0.905205 99.6751 0.703151C98.7484 0.290959 97.7322 0.0565753 96.651 0.0565753L7.38154 0C3.32494 0 0.0243883 3.26521 0.0243883 7.29822L0 51.6371C0 51.9281 0.0162589 52.219 0.0487767 52.5019C0.0650356 52.607 0.073165 52.6959 0.0894239 52.7929C0.14633 53.1404 0.219495 53.4879 0.325178 53.8112C0.504026 54.377 0.747909 54.9185 1.0487 55.4115C1.33323 55.8722 1.65841 56.3005 2.03236 56.6885C2.33315 57.0037 2.66646 57.2947 3.02415 57.5452C3.4225 57.8362 3.86962 58.0867 4.32487 58.2968C5.25162 58.709 6.2678 58.9434 7.34902 58.9434L96.6347 58.9919C99.7889 58.9919 102.488 57.0037 103.528 54.2315C103.602 54.0295 103.675 53.8274 103.724 53.6173C103.902 53.003 103.992 52.3564 103.984 51.6937L104.008 7.35479C104.008 6.61932 103.894 5.90808 103.699 5.23726C103.667 5.13219 103.634 5.03521 103.602 4.93822C103.545 4.78466 103.488 4.6311 103.423 4.48562C103.22 4.00877 102.968 3.56425 102.675 3.14397L102.659 3.15206ZM7.37341 3.26521L96.651 3.32178C98.5614 3.32178 100.163 4.63918 100.594 6.40918L3.43063 6.3526C3.86149 4.5826 5.46299 3.26521 7.37341 3.26521ZM100.691 51.7018C100.691 53.9244 98.8703 55.7348 96.6266 55.7267L7.34089 55.6782C5.10529 55.6782 3.2843 53.8678 3.29243 51.6371L3.31681 14.7985L100.716 14.8632L100.691 51.7018Z" fill="#006FB5"/>
<path d="M94.6186 41.405C94.7812 41.8253 94.8869 42.2537 94.9438 42.7144C94.9926 43.07 95.0088 43.4256 94.9845 43.8055L94.9519 46.8929C94.9519 46.8929 94.9519 46.9252 94.9438 46.9413C94.9438 47.0141 94.9275 47.0868 94.8788 47.1434C94.8463 47.2 94.8137 47.2646 94.765 47.3131C94.7406 47.3374 94.7243 47.3616 94.6999 47.3859C94.5617 47.5071 94.3747 47.5798 94.1715 47.596H75.0673C75.0673 47.596 75.0267 47.5879 75.0023 47.5798C74.9616 47.5798 74.921 47.5718 74.8803 47.5637C74.6934 47.5071 74.5308 47.402 74.417 47.2566C74.3438 47.1434 74.295 47.0141 74.295 46.8686L74.3357 43.5226C74.3519 42.9568 74.4495 42.4072 74.6283 41.8819C75.5307 39.0855 78.4492 37.0568 81.9855 37.0568H87.5785C87.7086 37.0568 87.8305 37.0568 87.9687 37.073C88.0582 37.073 88.1476 37.0811 88.2451 37.0892C88.2777 37.0892 88.3102 37.0892 88.3508 37.0892C88.4159 37.0972 88.4809 37.1053 88.5459 37.1053C88.6597 37.1215 88.7817 37.1376 88.8955 37.1538C88.9687 37.1619 89.0337 37.17 89.1069 37.1861C89.1394 37.1861 89.1719 37.1942 89.2044 37.2023C89.2532 37.2104 89.2938 37.2185 89.3345 37.2346C89.4077 37.2508 89.4808 37.267 89.554 37.275C89.6272 37.2912 89.7003 37.3155 89.7653 37.3316C89.8223 37.3478 89.8792 37.3559 89.9279 37.372C90.0174 37.4044 90.0987 37.4205 90.1881 37.4448C90.4157 37.5256 90.6433 37.6064 90.8628 37.7034C90.9522 37.7357 91.0417 37.7842 91.1311 37.8246C91.1555 37.8327 91.1717 37.8408 91.188 37.857C91.3018 37.9055 91.4075 37.9701 91.5132 38.0186C91.6595 38.0994 91.8058 38.1802 91.944 38.2692C92.0416 38.3257 92.131 38.3823 92.2204 38.447C92.2692 38.4793 92.3261 38.5197 92.3749 38.5601C92.4643 38.6329 92.5537 38.6975 92.6432 38.7622C92.7326 38.8349 92.822 38.9076 92.9033 38.9885C92.9521 39.0289 93.009 39.0774 93.0578 39.1178C93.0903 39.1582 93.1309 39.1986 93.1716 39.2309C93.2448 39.3037 93.3179 39.3683 93.383 39.4411C93.9195 40.023 94.3341 40.6776 94.6186 41.405Z" fill="#006FB5"/>
<path d="M90.8547 29.7425C90.8547 33.0642 88.1476 35.7556 84.8064 35.7556C81.4652 35.7556 78.7662 33.0562 78.7662 29.7425C78.7662 26.4207 81.4733 23.7293 84.8145 23.7293C88.1557 23.7293 90.8547 26.4288 90.8547 29.7425Z" fill="#006FB5"/>
<path d="M90.8547 29.7425C90.8547 33.0642 88.1476 35.7556 84.8064 35.7556C81.4652 35.7556 78.7662 33.0562 78.7662 29.7425C78.7662 26.4207 81.4733 23.7293 84.8145 23.7293C88.1557 23.7293 90.8547 26.4288 90.8547 29.7425Z" fill="#006FB5"/>
<path d="M93.4155 20.2217L75.8477 20.2055C74.9941 20.2055 74.3031 20.8925 74.3031 21.7411V46.8121C74.3031 46.8121 74.295 46.8444 74.3031 46.8606C74.3031 47.0061 74.36 47.1354 74.4251 47.2485C74.5308 47.4021 74.7015 47.5152 74.8884 47.5556C74.9291 47.5637 74.9697 47.5718 75.0104 47.5718C75.0266 47.5718 75.051 47.5799 75.0754 47.5718H94.1796C94.3829 47.5799 94.5698 47.5071 94.708 47.3778C94.7324 47.3536 94.7487 47.3374 94.7731 47.3051C94.8218 47.2566 94.8544 47.1919 94.8869 47.1354C94.9194 47.0707 94.9357 47.0061 94.9519 46.9333C94.9519 46.8929 94.9519 46.8606 94.9519 46.8202V42.7063L94.96 21.7492C94.96 20.9006 94.2772 20.2217 93.4236 20.2136L93.4155 20.2217ZM94.6267 21.7573V41.4051C94.3422 40.6858 93.9195 40.023 93.3829 39.4411C93.3179 39.3684 93.2447 39.3037 93.1716 39.231C93.1309 39.1906 93.0903 39.1582 93.0578 39.1178C93.009 39.0693 92.9521 39.0289 92.9033 38.9885C92.822 38.9077 92.7326 38.835 92.6432 38.7622C92.5537 38.6895 92.4643 38.6248 92.3749 38.5602C92.318 38.5198 92.2611 38.4874 92.2204 38.447C92.131 38.3824 92.0334 38.3258 91.944 38.2692C91.8058 38.1803 91.6595 38.0914 91.5132 38.0187C91.4075 37.9621 91.3018 37.9055 91.188 37.857C91.1636 37.8489 91.1473 37.8408 91.1311 37.8247C91.0417 37.7843 90.9522 37.7439 90.8628 37.7035C90.6352 37.6065 90.4157 37.5256 90.1881 37.4448C90.1068 37.4206 90.0173 37.3963 89.9279 37.3721C89.8791 37.3559 89.8222 37.3478 89.7653 37.3317C89.6922 37.3074 89.6271 37.2913 89.554 37.2751C89.4808 37.2589 89.4076 37.2428 89.3345 37.2347C89.2938 37.2266 89.2532 37.2185 89.2044 37.2024C89.1719 37.2024 89.1394 37.1943 89.1068 37.1862C89.0337 37.17 88.9605 37.1619 88.8955 37.1539C88.7817 37.1296 88.6679 37.1135 88.5459 37.1054C88.4809 37.1054 88.4158 37.0973 88.3508 37.0892C88.3102 37.0892 88.2776 37.0811 88.2451 37.0892C88.1476 37.0811 88.0581 37.073 87.9687 37.073C87.8387 37.073 87.7086 37.065 87.5785 37.073H81.9855C78.4573 37.073 75.5388 39.0936 74.6283 41.89V21.7411C74.6283 21.4178 74.7584 21.1107 74.986 20.8844C75.2218 20.65 75.5225 20.5288 75.8477 20.5288L93.4155 20.545C93.7406 20.545 94.0496 20.6743 94.2772 20.8925C94.5048 21.1188 94.6349 21.4259 94.6349 21.7492L94.6267 21.7573Z" fill="#006FB5"/>
<path d="M94.7324 20.448C94.3829 20.0923 93.9114 19.9064 93.4073 19.8984L75.8396 19.8822C75.3437 19.8822 74.8722 20.0762 74.5226 20.4237C74.1649 20.7712 73.9779 21.24 73.9698 21.7411V46.8121V46.9333C73.9861 47.103 74.043 47.2728 74.1405 47.4263C74.295 47.6526 74.5389 47.8143 74.8072 47.8628C74.8559 47.8708 74.9128 47.887 74.9697 47.8951L94.1634 47.9112C94.3341 47.9112 94.5048 47.8708 94.6593 47.7981C94.7487 47.7577 94.83 47.7011 94.895 47.6364C94.9357 47.6122 94.96 47.5718 95.0007 47.5314C95.0739 47.4425 95.1226 47.3536 95.1633 47.2728C95.2121 47.1677 95.2364 47.0707 95.2608 46.9575L95.2771 21.7573C95.2771 21.2562 95.082 20.7955 94.7324 20.448ZM94.6267 21.7573V41.4051L94.6105 41.4132V46.7959V46.8686C94.6105 46.9333 94.5861 46.9656 94.578 46.9899C94.5617 47.0222 94.5373 47.0707 94.5211 47.0949L94.4723 47.1434C94.391 47.2243 94.2772 47.2647 94.1634 47.2647H75.0836L75.0266 47.2485C75.0023 47.2485 74.9779 47.2485 74.9454 47.2404C74.8397 47.2243 74.7502 47.1596 74.6933 47.0788C74.6608 47.0303 74.6202 46.9495 74.6202 46.8606V41.8738V21.7411C74.6202 21.4178 74.7502 21.1107 74.9779 20.8844C75.2136 20.65 75.5144 20.5288 75.8396 20.5288L93.4073 20.5449C93.7325 20.5449 94.0414 20.6743 94.269 20.8925C94.4967 21.1188 94.6267 21.4259 94.6267 21.7492V21.7573Z" fill="#006FB5"/>
<path d="M60.7757 46.0847C60.8083 46.1736 60.7351 46.2705 60.6213 46.3029C60.0522 46.416 59.4994 46.4726 58.9791 46.4726C58.4507 46.4726 57.9467 46.4079 57.4671 46.2948C57.0118 46.1816 56.7273 46.0604 56.4753 45.9473C56.1826 45.8179 55.955 45.7129 55.5079 45.6644C54.9957 45.5997 54.7112 45.6644 54.2071 45.7694C53.8413 45.8503 53.3861 45.9473 52.6707 46.0362C52.0203 46.1251 51.0123 46.2059 49.8904 46.1574C49.0206 46.1251 48.5084 46.0281 48.0125 45.9392C47.6873 45.8745 47.3865 45.8179 46.9801 45.7775C46.1996 45.6967 45.3704 45.7129 44.5331 45.826C44.2973 45.8583 44.0535 45.8988 43.8177 45.9473C43.1267 46.0846 42.4113 46.222 41.6146 46.0038C41.5008 45.9715 41.4358 45.8664 41.4683 45.7775C41.5089 45.6805 41.6228 45.624 41.7447 45.6563C42.4276 45.8422 43.0617 45.721 43.7202 45.5916C43.9559 45.5431 44.2079 45.5027 44.4681 45.4623C45.346 45.3411 46.2078 45.3249 47.037 45.4138C47.4678 45.4623 47.8011 45.527 48.1182 45.5836C48.6222 45.6805 49.0937 45.7694 49.9148 45.8018C51.0041 45.8422 51.9878 45.7533 52.6219 45.6805C53.3129 45.5916 53.7519 45.4866 54.1096 45.4138C54.6299 45.3007 54.9794 45.2279 55.5891 45.3007C56.1094 45.3653 56.394 45.4947 56.6948 45.624C56.9386 45.7371 57.1825 45.8422 57.5971 45.9392C58.4832 46.1574 59.475 46.1493 60.54 45.9392C60.6538 45.9149 60.7676 45.9796 60.8001 46.0766L60.7757 46.0847Z" fill="#006FB5"/>
<path d="M60.7757 46.0847C60.8083 46.1736 60.7351 46.2706 60.6213 46.3029C60.0522 46.4161 59.4994 46.4727 58.9791 46.4727C58.4507 46.4727 57.9467 46.408 57.4671 46.2948C57.0118 46.1817 56.7273 46.0605 56.4753 45.9473C56.1826 45.818 55.955 45.7129 55.5079 45.6644C54.9957 45.5998 54.7112 45.6644 54.2071 45.7695C53.8413 45.8503 53.3861 45.9473 52.6707 46.0362C52.0203 46.1251 51.0123 46.2059 49.8904 46.1575C49.0206 46.1251 48.5084 46.0281 48.0125 45.9392C47.6873 45.8746 47.3865 45.818 46.9801 45.7776C46.1996 45.6968 45.3704 45.7129 44.5331 45.8261C44.2973 45.8584 44.0535 45.8988 43.8177 45.9473C43.1267 46.0847 42.4113 46.2221 41.6146 46.0039C41.5008 45.9716 41.4358 45.8665 41.4683 45.7776C41.5089 45.6806 41.6228 45.624 41.7447 45.6564C42.4276 45.8422 43.0617 45.721 43.7202 45.5917C43.9559 45.5432 44.2079 45.5028 44.4681 45.4624C45.346 45.3411 46.2078 45.325 47.037 45.4139C47.4678 45.4624 47.8011 45.527 48.1182 45.5836C48.6222 45.6806 49.0937 45.7695 49.9148 45.8018C51.0041 45.8422 51.9878 45.7533 52.6219 45.6806C53.3129 45.5917 53.7519 45.4866 54.1096 45.4139C54.6299 45.3007 54.9794 45.228 55.5891 45.3007C56.1094 45.3654 56.394 45.4947 56.6948 45.624C56.9386 45.7372 57.1825 45.8422 57.5971 45.9392C58.4832 46.1575 59.475 46.1494 60.54 45.9392C60.6538 45.915 60.7676 45.9796 60.8001 46.0766L60.7757 46.0847Z" fill="#006FB5"/>
<path d="M39.0457 42.2861V49.552L63.8568 49.5681V42.3022L39.0457 42.2861ZM63.5398 49.2448L39.3709 49.2287V42.6094L63.5398 42.6255V49.2448Z" fill="#006FB5"/>
<path d="M38.7206 41.9628V49.8752L64.182 49.8914V41.9789L38.7206 41.9628ZM39.3709 49.2287V42.6093L63.5397 42.6255V49.2448L39.3709 49.2287Z" fill="#006FB5"/>
<path d="M13.5518 22.4604C14.6899 22.3634 15.6898 21.6926 16.706 21.1753C17.7303 20.6581 18.966 20.2863 19.9903 20.7955C20.6163 21.1026 21.0715 21.7087 21.73 21.935C23.4372 22.5089 25.2501 20.2944 26.8841 21.0298C27.3637 21.24 27.7295 21.6845 28.2417 21.7896C29.0709 21.9593 29.7863 21.1915 30.6074 20.9813C31.7617 20.6904 32.8836 21.5471 34.0624 21.7087C35.7696 21.9512 37.3548 20.7389 39.0782 20.6661C41.5659 20.553 44.2567 22.7433 46.2891 21.3127" fill="#006FB5"/>
<path d="M13.8119 25.758C14.9257 24.9417 16.2101 26.6308 17.5677 26.9137C18.3807 27.0834 19.1855 26.7036 19.9659 26.4369C22.1609 25.6852 24.6241 25.7337 26.7784 26.5743C27.3312 26.7925 27.884 27.0592 28.4774 27.1158C29.4855 27.2128 30.4285 26.6793 31.3471 26.2671" fill="#006FB5"/>
<path d="M27.3475 35.1333C28.0954 35.1737 28.8514 34.8989 29.388 34.3817C30.0464 35.7395 32.9161 34.123 33.4202 35.5455" fill="#006FB5"/>
<path d="M13.4705 34.9474C14.1371 35.295 15.007 35.2141 15.5923 34.7454C17.0393 35.0686 18.5433 35.0848 19.9984 34.8019" fill="#006FB5"/>
<path d="M13.4786 29.7425C16.2752 28.6594 19.3643 30.0415 22.3641 30.1223C25.2582 30.2031 28.2986 29.0797 30.9651 30.1951C31.461 30.4052 31.9406 30.6881 32.4771 30.6881C33.0299 30.6881 33.5258 30.3729 34.0624 30.2274C34.5095 30.0981 34.981 30.0819 35.4444 30.0738" fill="#006FB5"/>
</g>
<defs>
<clipPath id="clip0_202_188">
<rect width="104" height="59" fill="white"/>
</clipPath>
</defs>
</svg>
