<svg width="108" height="73" viewBox="0 0 108 73" fill="none" xmlns="http://www.w3.org/2000/svg">
<g clip-path="url(#clip0_202_159)">
<path d="M106.234 45.9566C106.234 45.9566 106.128 45.7499 106.093 45.681C106.022 45.5776 105.952 45.4743 105.846 45.3365C105.704 45.1298 105.528 44.9231 105.351 44.7164C105.175 44.5097 104.998 44.2685 104.821 44.0618C104.751 43.9585 104.645 43.8551 104.574 43.7173C104.504 43.614 104.398 43.5451 104.327 43.4417C104.256 43.3384 104.15 43.235 104.08 43.1661C103.903 42.9939 103.727 42.8216 103.515 42.6494C103.479 42.6149 103.409 42.5805 103.373 42.546C102.95 42.1671 102.526 41.8226 102.031 41.547L101.219 40.2034L104.857 39.5833C104.857 39.5833 105.175 39.5833 105.316 39.5144C105.916 39.3077 106.34 38.791 106.34 38.1364V37.5507C106.34 36.5517 105.492 35.7249 104.468 35.7249H101.855C101.431 35.7249 101.078 36.0349 101.078 36.4483V37.7574H100.195C99.1354 35.3459 96.2394 29.2482 94.2263 27.8358C93.9438 27.5257 93.414 27.319 92.8136 27.319C92.4251 27.319 92.1073 27.3879 91.8247 27.5257C91.1184 27.5257 90.3061 27.4913 89.4232 27.4568C89.1053 27.2157 88.6462 27.0779 88.1517 27.0779C87.6926 27.0779 87.3041 27.1812 86.9863 27.3879C86.3506 27.3879 85.7149 27.3535 85.0791 27.319C84.4434 27.319 83.843 27.2846 83.2426 27.2501C82.9954 27.1468 82.6776 27.0779 82.3244 27.0779C82.0419 27.0779 81.7593 27.1123 81.5121 27.2157C80.8411 27.2157 80.276 27.2157 79.8169 27.2157C79.8169 27.2157 79.3224 27.2157 78.5455 27.2501C78.2982 27.1468 78.0157 27.1123 77.6978 27.1123C77.3094 27.1123 76.9915 27.1812 76.709 27.319C75.5788 27.3535 74.3074 27.3879 72.9653 27.4224C72.6828 27.2501 72.2943 27.1468 71.8705 27.1468C71.4114 27.1468 70.9523 27.2846 70.6697 27.4913C69.6455 27.4913 68.692 27.5602 67.915 27.5602C67.6324 27.4224 67.2793 27.3535 66.9261 27.3535C66.4317 27.3535 65.9725 27.4913 65.69 27.7324C63.8888 28.6281 61.2047 33.9679 59.8627 36.8617C59.7567 37.1373 59.6154 37.3785 59.5448 37.5852C59.5095 37.6541 59.4742 37.7574 59.4389 37.8263H58.4853V36.5172C58.4853 36.1038 58.1321 35.7938 57.7083 35.7938H55.0948C54.671 35.7938 54.2472 35.9316 53.9294 36.1727C53.7175 36.345 53.5409 36.5517 53.3996 36.8273C53.2937 37.0684 53.223 37.344 53.223 37.6196V38.2053C53.223 38.8599 53.6468 39.4111 54.2472 39.5833C54.3885 39.6178 54.5651 39.6522 54.7063 39.6522L58.344 40.2723L57.5317 41.6159C57.0726 41.9259 56.6135 42.2704 56.1897 42.6149C55.4833 43.235 54.8829 43.924 54.3179 44.6819C54.3179 44.6819 54.3179 44.7164 54.2825 44.7508C54.2825 44.7508 54.2825 44.7853 54.2472 44.8197C54 45.1987 53.8587 45.3365 53.7175 45.5087C53.7175 45.5087 53.6821 45.5432 53.6468 45.5776C53.5409 45.7499 53.4349 45.9221 53.329 46.0944C53.329 46.0944 53.329 46.1288 53.329 46.1633C53.2937 46.2322 53.223 46.3355 53.1877 46.4389C53.223 46.3355 53.2937 46.2666 53.329 46.1633C53.1877 46.4389 53.0111 46.8179 52.7992 47.2657C52.8345 47.1624 52.8699 47.0935 52.9052 46.9901C52.8699 47.0935 52.8345 47.1624 52.7992 47.2657C52.7992 47.2657 52.7992 47.3002 52.7992 47.3346C52.2341 48.7471 51.9163 50.2973 51.9163 51.9165V70.1406C51.9163 71.7598 53.2583 73.0689 54.9183 73.0689H57.4611C59.121 73.0689 60.4631 71.7598 60.4631 70.1406V68.2114C60.9575 68.2114 61.4519 68.2803 61.9464 68.3148C64.5599 68.4526 67.2793 68.5904 70.0693 68.6593H70.1047C70.4578 68.6593 70.7757 68.6593 71.1288 68.6593C71.4114 68.6593 71.6939 68.6593 71.9765 68.6593C72.0471 68.6593 72.1177 68.6593 72.1884 68.6593C72.1884 68.6593 72.5415 68.6593 72.6828 68.6593C72.6828 68.6593 72.8241 68.6593 72.8947 68.6593C72.8947 68.6593 73.036 68.6593 73.1066 68.6593C73.4245 68.6593 73.7776 68.6593 74.0955 68.6593C74.0955 68.6593 74.2368 68.6593 74.3074 68.6593C74.4134 68.6593 74.484 68.6593 74.5899 68.6593C74.6606 68.6593 74.7312 68.6593 74.8018 68.6593C75.1903 68.6593 75.5788 68.6593 76.0026 68.6593C76.0026 68.6593 76.1439 68.6593 76.2145 68.6593C76.6383 68.6593 77.0975 68.6593 77.5213 68.6593C77.5919 68.6593 77.6978 68.6593 77.7685 68.6593H77.8038C78.1923 68.6593 78.5808 68.6593 78.9693 68.6593H79.0046C79.0046 68.6593 79.2165 68.6593 79.3224 68.6593C79.7816 68.6593 80.2407 68.6593 80.6998 68.6593C81.0883 68.6593 81.4768 68.6593 81.8653 68.6593H81.9006C81.9006 68.6593 82.0772 68.6593 82.1478 68.6593H82.1831C82.5363 68.6593 82.8895 68.6593 83.2426 68.6593C83.4899 68.6593 83.7371 68.6593 83.9843 68.6593H84.0196C84.5494 68.6593 85.1145 68.6593 85.6442 68.6593C85.6442 68.6593 85.7855 68.6593 85.8561 68.6593C86.2446 68.6593 86.6684 68.6593 87.0569 68.6593C87.1275 68.6593 87.1982 68.6593 87.2688 68.6593C87.2688 68.6593 87.4454 68.6593 87.5513 68.6593C87.5513 68.6593 87.6926 68.6593 87.7633 68.6593C88.1517 68.6593 88.5755 68.6593 88.964 68.6593C88.964 68.6593 89.1053 68.6593 89.1759 68.6593C91.8954 68.5904 94.5442 68.487 97.1223 68.3837C97.6167 68.3837 98.1112 68.3492 98.6056 68.3148V70.0717C98.6056 71.6909 99.9477 73 101.608 73H104.15C105.81 73 107.152 71.6909 107.152 70.0717V51.8476C107.152 49.7117 106.623 47.6791 105.669 45.9566H106.234ZM61.2047 38.6532C61.3107 38.412 61.4519 38.1364 61.5932 37.7919C61.9817 36.9306 62.5468 35.7938 63.1472 34.6225C64.8777 31.2464 65.9019 30.0406 66.361 29.6272H79.9228V30.2129H77.9097C77.9097 30.2129 77.6978 30.2473 77.6272 30.3162C77.5566 30.3851 77.5213 30.4885 77.5213 30.5918C77.5213 30.7985 77.6978 31.0052 77.9451 31.0052H82.3597C82.3597 31.0052 82.5716 30.9708 82.6423 30.9019C82.7129 30.833 82.7482 30.7296 82.7482 30.6263C82.7482 30.4196 82.5716 30.2129 82.3244 30.2129H80.3113V29.6272H93.3081C93.7319 30.0406 94.7561 31.2464 96.5219 34.6569C97.4048 36.345 98.1465 37.9986 98.535 38.8254H94.7207V38.3086C94.7207 37.5163 94.0497 36.8617 93.2374 36.8617H91.8247C92.0719 36.5861 92.2132 36.2072 92.2132 35.8282V33.1067C92.2132 32.6933 91.8954 32.3832 91.4716 32.3832H87.5513C87.1275 32.3832 86.8097 32.6933 86.8097 33.1067V35.8282C86.8097 36.2416 86.951 36.5861 87.1982 36.8617H85.6442C84.8319 36.8617 84.1609 37.5163 84.1609 38.3086V38.8254C82.8188 38.6876 81.3355 38.5843 79.8522 38.5843C78.5808 38.5843 77.38 38.6532 76.2145 38.7565V38.3086C76.2145 37.5163 75.5435 36.8617 74.7312 36.8617H73.3185C73.5657 36.5861 73.707 36.2072 73.707 35.8282V33.1067C73.707 32.6933 73.3891 32.3832 72.9653 32.3832H69.0451C68.6213 32.3832 68.3035 32.6933 68.3035 33.1067V35.8282C68.3035 36.2416 68.4447 36.5861 68.692 36.8617H67.138C66.3257 36.8617 65.6547 37.5163 65.6547 38.3086V38.8254H61.2754C61.2754 38.8254 61.346 38.6876 61.346 38.6532H61.2047ZM63.6416 47.9892C63.6416 47.9892 63.6416 48.0925 63.6416 48.1614C63.5357 48.8504 62.9706 49.3672 62.2289 49.3672H57.3551C56.5782 49.3672 55.9425 48.7471 55.9425 47.9892V47.1279C55.9425 46.4389 56.4722 45.8532 57.1432 45.7499C57.2139 45.7499 57.2845 45.7499 57.3551 45.7499H62.2289C62.4761 45.7499 62.688 45.8188 62.8646 45.8877C63.3237 46.1288 63.6416 46.5767 63.6416 47.1279V47.9892ZM91.295 57.0496C89.7763 58.0142 86.5271 58.0486 86.0327 58.0486H73.4245C73.4245 58.0486 73.1419 58.0486 72.8594 58.0486C71.7292 58.0142 69.3983 57.8419 68.1622 57.0496H91.295ZM95.1799 53.0189C95.1799 53.0189 94.7207 53.5356 94.2616 54.0179H65.1956C64.7717 53.5356 64.4186 53.1567 64.2773 53.0189H95.1445H95.1799ZM103.55 48.2992C103.55 49.0571 102.914 49.6772 102.137 49.6772H97.2636C96.4866 49.6772 95.8509 49.0571 95.8509 48.2992V47.438C95.8509 46.6801 96.4866 46.0599 97.2636 46.0599H102.137C102.137 46.0599 102.314 46.0599 102.42 46.0599C103.056 46.1977 103.55 46.749 103.55 47.4035V48.2648V48.2992Z" fill="#006FB5"/>
<path d="M104.574 37.2062V37.9986H104.751V37.4818C104.751 37.4818 104.68 37.2407 104.574 37.2062ZM104.574 37.2062V37.9986H104.751V37.4818C104.751 37.4818 104.68 37.2407 104.574 37.2062ZM104.574 37.2062V37.9986H104.751V37.4818C104.751 37.4818 104.68 37.2407 104.574 37.2062Z" fill="#333333"/>
<path d="M33.2688 43.4762V48.2303H10.3833V43.1317C10.5598 38.6187 14.2328 35.0015 18.8947 35.0015H25.0752C25.0752 35.0015 25.3577 35.0015 25.499 35.0015C25.605 35.0015 25.7109 35.0015 25.8169 35.0015C25.8522 35.0015 25.8875 35.0015 25.9228 35.0015C25.9935 35.0015 26.0641 35.0015 26.1347 35.0015C26.276 35.0015 26.3819 35.0015 26.5232 35.0704C26.5938 35.0704 26.6645 35.0704 26.7704 35.1048C26.7704 35.1048 26.8411 35.1048 26.8764 35.1048C26.9117 35.1048 26.9823 35.1048 27.0177 35.1048C27.0883 35.1048 27.1942 35.1393 27.2649 35.1737C27.3355 35.1737 27.4415 35.2082 27.5121 35.2426C27.5827 35.2426 27.6534 35.2771 27.6887 35.3115C27.7946 35.3115 27.8653 35.3804 27.9712 35.4149C28.2184 35.5182 28.4657 35.6216 28.7129 35.7249C28.8188 35.7594 28.9248 35.8283 28.9954 35.8627C28.9954 35.8627 29.0307 35.8627 29.0661 35.8972C29.172 35.9661 29.3133 36.035 29.4192 36.1039C29.5958 36.2072 29.7371 36.3106 29.9137 36.4139C30.0196 36.4828 30.1256 36.5517 30.2315 36.6206C30.3022 36.6551 30.3375 36.724 30.4081 36.7584C30.5141 36.8273 30.62 36.9307 30.726 37.034C30.8319 37.1374 30.9025 37.2063 31.0085 37.3096C31.0791 37.3785 31.1145 37.413 31.1851 37.4819C31.2204 37.5163 31.2557 37.5852 31.3264 37.6197C31.397 37.723 31.4676 37.7919 31.5383 37.8953C32.739 39.3422 33.4101 41.2714 33.3041 43.3729L33.2688 43.4762Z" fill="#006FB5"/>
<path d="M22.0026 33.3823C25.6891 33.3823 28.6776 30.0045 28.6776 25.8377C28.6776 21.6709 25.6891 18.2931 22.0026 18.2931C18.3161 18.2931 15.3277 21.6709 15.3277 25.8377C15.3277 30.0045 18.3161 33.3823 22.0026 33.3823Z" fill="#006FB5"/>
<path d="M100.371 0H7.62852C3.42577 0 0 3.34167 0 7.44125V52.6399C0 56.7395 3.42577 60.0812 7.62852 60.0812H50.1504V56.7395H7.62852C5.29758 56.7395 3.42577 54.9136 3.42577 52.6399V12.9533H104.574V34.1402C106.446 34.1746 107.929 35.6904 107.929 37.4818V38.0675C107.929 39.3766 107.082 40.5135 105.81 40.9269C105.563 40.9958 105.281 41.0647 104.998 41.0647L104.574 41.1336V41.5125C104.786 41.7192 104.998 41.9259 105.175 42.0982C105.281 42.2015 105.351 42.3049 105.422 42.3738H105.457C105.457 42.3738 105.492 42.4771 105.528 42.4771C105.598 42.546 105.704 42.6494 105.775 42.7527C105.881 42.8561 105.952 42.9939 106.058 43.0972C106.234 43.3384 106.411 43.5451 106.552 43.7518C106.729 43.9585 106.905 44.1996 107.082 44.4408C107.188 44.5786 107.258 44.6819 107.364 44.8197C107.47 44.9575 107.506 45.0609 107.576 45.1642V45.2331C107.753 45.4743 107.859 45.7154 107.965 45.9566V7.44125C107.965 3.34167 104.539 0 100.336 0H100.371ZM3.42577 9.61161V7.44125C3.42577 5.16753 5.29758 3.34167 7.62852 3.34167H100.371C102.702 3.34167 104.574 5.16753 104.574 7.44125V9.61161H3.42577Z" fill="#006FB5"/>
<path d="M100.054 17.294H38.0366C37.549 17.294 37.1537 17.6796 37.1537 18.1553C37.1537 18.6309 37.549 19.0165 38.0366 19.0165H100.054C100.541 19.0165 100.937 18.6309 100.937 18.1553C100.937 17.6796 100.541 17.294 100.054 17.294Z" fill="#006FB5"/>
<path d="M58.0615 26.5611C57.4258 26.5611 56.7901 26.4922 56.225 26.32C55.6599 26.1477 55.3421 25.9755 55.0242 25.8377C54.671 25.6654 54.3885 25.4932 53.8587 25.4243C53.223 25.3209 52.9052 25.4243 52.2695 25.5965C51.8103 25.6999 51.2806 25.8721 50.3976 25.9755C49.6207 26.0788 48.3846 26.2166 47.0072 26.1477C45.9477 26.1133 45.312 25.9755 44.7116 25.8377C44.3231 25.7343 43.9346 25.6654 43.4402 25.5965C42.4866 25.4932 41.4977 25.4932 40.4735 25.6654C40.191 25.6999 39.8731 25.7688 39.5906 25.8377C38.743 26.0099 37.8954 26.2166 36.9065 25.9066C36.7652 25.8721 36.6946 25.7343 36.7299 25.5965C36.7652 25.4587 36.9065 25.3898 37.0477 25.4243C37.8954 25.6999 38.637 25.5276 39.4493 25.3209C39.7318 25.252 40.0497 25.1831 40.3676 25.1487C41.4271 24.9764 42.4866 24.942 43.5108 25.0798C44.0405 25.1487 44.429 25.2176 44.8175 25.3209C45.4179 25.4587 46.0183 25.5965 47.0072 25.631C48.3139 25.6999 49.5147 25.5621 50.2917 25.4587C51.1393 25.3209 51.6691 25.1831 52.0929 25.0798C52.7286 24.9075 53.1524 24.8042 53.894 24.9075C54.5298 25.0109 54.8829 25.1831 55.2361 25.3554C55.5186 25.4932 55.8365 25.6654 56.3309 25.8032C57.4258 26.1133 58.6265 26.1133 59.898 25.8032C60.0392 25.8032 60.1805 25.8377 60.2158 25.9755C60.2511 26.1133 60.1805 26.2511 60.0392 26.2855C59.3329 26.4578 58.6972 26.5267 58.0262 26.5267L58.0615 26.5611Z" fill="#006FB5"/>
<path d="M52.2695 31.0741C52.0929 31.0741 51.9163 31.0741 51.7044 31.0397C51.4219 31.0052 51.1746 30.9019 50.9274 30.7985C50.7508 30.7296 50.5742 30.6607 50.3977 30.6263C49.6207 30.4196 48.8084 30.5229 47.9608 30.6263C47.6782 30.6607 47.3604 30.6952 47.0425 30.7296C45.877 30.833 44.7116 30.7296 43.5814 30.3851L43.4048 30.3162C42.9457 30.1784 42.5219 30.0751 42.1334 30.144C41.9568 30.1784 41.8156 30.2473 41.639 30.3162C41.4977 30.3851 41.3211 30.454 41.1445 30.4885C40.5088 30.6607 39.8378 30.5229 39.2021 30.3851C38.4958 30.2473 37.8247 30.0751 37.295 30.454C37.189 30.5229 37.0124 30.5229 36.9418 30.3851C36.8712 30.2818 36.8712 30.1095 37.0124 30.0406C37.7188 29.5583 38.5311 29.7306 39.3434 29.9028C39.9084 30.0406 40.5088 30.144 41.0033 30.0062C41.1445 29.9717 41.2858 29.9028 41.4271 29.8339C41.6037 29.765 41.8156 29.6617 42.0275 29.6272C42.5572 29.5239 43.087 29.6617 43.5814 29.7995L43.758 29.8684C44.8175 30.1784 45.9124 30.2818 47.0072 30.1784C47.2897 30.1784 47.6076 30.1095 47.8901 30.0751C48.7731 29.9717 49.656 29.8339 50.5389 30.0751C50.7508 30.1095 50.9274 30.1784 51.104 30.2473C51.3512 30.3162 51.5631 30.4196 51.8103 30.454C52.5167 30.5918 53.1877 30.3851 53.9294 30.1784C54.6004 29.9717 55.3067 29.7995 56.0484 29.8339C56.5075 29.8684 56.9313 30.0062 57.3551 30.144C57.6024 30.2129 57.8143 30.2818 58.0615 30.3507C58.4147 30.4196 59.227 30.5574 59.7214 30.1095C59.8273 30.0062 60.0039 30.0062 60.1099 30.1095C60.2158 30.2129 60.2158 30.3851 60.1099 30.4885C59.6154 30.9363 58.8385 31.0741 57.9555 30.8674C57.7083 30.7985 57.4611 30.7296 57.2139 30.6607C56.8254 30.5229 56.4369 30.4196 56.0484 30.3851C55.4127 30.3162 54.777 30.5229 54.106 30.6952C53.5056 30.8674 52.9052 31.0397 52.3048 31.0397L52.2695 31.0741Z" fill="#006FB5"/>
</g>
<defs>
<clipPath id="clip0_202_159">
<rect width="108" height="73" fill="white"/>
</clipPath>
</defs>
</svg>
