<svg width="98" height="73" viewBox="0 0 98 73" fill="none" xmlns="http://www.w3.org/2000/svg">
<g clip-path="url(#clip0_202_207)">
<path d="M28.13 11.2H24.59C25.73 10.98 26.93 10.97 28.13 11.2Z" fill="#006FB5"/>
<path d="M72.67 0H5.52C2.48 0 0 2.48 0 5.52V39.07C0 42.12 2.48 44.59 5.52 44.59H11.52L12.06 42.12H5.52C3.84 42.12 2.47 40.75 2.47 39.07V11.2H75.72V21.63L78.19 22.17V5.52C78.19 2.47 75.71 0 72.67 0ZM2.56 4.81C2.88 3.47 4.09 2.48 5.52 2.48H72.67C74.11 2.48 75.31 3.47 75.63 4.81H2.56Z" fill="#006FB5"/>
<path d="M22.96 37.04L29.11 38.39L28.46 41.34L22.57 40.05C22.46 40.03 22.35 39.82 22.41 39.54L22.96 37.05V37.04Z" fill="#006FB5"/>
<path d="M23.36 35.2L29.55 36.56C29.5 36.67 29.46 36.8 29.43 36.92L29.23 37.83L23.08 36.48L23.36 35.2Z" fill="#006FB5"/>
<path d="M31.7 35.47C31.01 35.32 30.33 35.56 29.88 36.05L23.48 34.65L23.62 33.99C23.68 33.72 23.87 33.58 23.98 33.6L32.77 35.53C32.83 35.54 32.9 35.62 32.93 35.74L31.7 35.47Z" fill="#006FB5"/>
<path d="M31.58 36.03L32.87 36.31L32.18 39.44L29.59 38.87L29.99 37.04C30.15 36.32 30.86 35.87 31.58 36.02V36.03Z" fill="#006FB5"/>
<path d="M29.4702 39.4397L29.3181 40.1332L31.9065 40.7009L32.0586 40.0074L29.4702 39.4397Z" fill="#006FB5"/>
<path d="M29.19 40.68L31.78 41.25L31.71 41.58C31.65 41.86 31.46 42 31.35 41.97L29.02 41.46L29.19 40.68Z" fill="#006FB5"/>
<path d="M93.13 29.31L27.55 14.93C24.57 14.28 21.62 16.17 20.97 19.14L13.79 51.9C13.14 54.88 15.03 57.83 18 58.48L83.59 72.86C86.57 73.51 89.52 71.62 90.17 68.65L97.35 35.89C98 32.91 96.11 29.96 93.14 29.31H93.13ZM65.35 46.82C65.42 46.61 65.65 46.5 65.85 46.57C66.49 46.79 67.14 46.75 67.84 46.71C68.29 46.68 68.76 46.66 69.25 46.7C70.36 46.8 71.37 47.23 72.34 47.65C72.92 47.9 73.51 48.15 74.12 48.33C74.33 48.39 74.45 48.61 74.39 48.82C74.33 49.03 74.11 49.15 73.9 49.09C73.25 48.9 72.63 48.63 72.03 48.38C71.07 47.97 70.17 47.58 69.18 47.5C68.75 47.46 68.31 47.49 67.88 47.51C67.26 47.55 66.63 47.58 65.98 47.44C65.85 47.41 65.72 47.38 65.6 47.33C65.39 47.26 65.28 47.04 65.35 46.83V46.82ZM52.29 43.96C52.36 43.75 52.59 43.64 52.79 43.71C53.43 43.93 54.08 43.89 54.78 43.85C55.23 43.82 55.7 43.8 56.19 43.84C57.3 43.94 58.31 44.37 59.28 44.79C59.86 45.04 60.45 45.29 61.06 45.47C61.27 45.53 61.39 45.75 61.33 45.96C61.27 46.17 61.04 46.28 60.84 46.23C60.19 46.04 59.57 45.77 58.97 45.52C58.01 45.11 57.11 44.72 56.12 44.64C55.69 44.6 55.25 44.63 54.82 44.65C54.2 44.69 53.57 44.72 52.92 44.58C52.79 44.55 52.66 44.52 52.54 44.47C52.33 44.4 52.22 44.18 52.29 43.97V43.96ZM39.81 41.22C39.88 41.01 40.1 40.9 40.31 40.97C40.95 41.19 41.6 41.15 42.29 41.11C42.74 41.08 43.21 41.06 43.7 41.1C44.81 41.2 45.82 41.63 46.79 42.05C47.37 42.3 47.96 42.55 48.57 42.73C48.78 42.79 48.9 43.01 48.84 43.22C48.78 43.43 48.56 43.55 48.35 43.49C47.7 43.3 47.08 43.03 46.48 42.78C45.52 42.37 44.61 41.98 43.63 41.9C43.2 41.86 42.76 41.89 42.33 41.91C41.71 41.95 41.08 41.98 40.43 41.84C40.3 41.81 40.17 41.78 40.05 41.73C39.84 41.66 39.73 41.44 39.8 41.23L39.81 41.22ZM32.18 41.67C32.07 42.17 31.66 42.52 31.26 42.43L22.47 40.5C22.07 40.41 21.84 39.93 21.95 39.43L23.17 33.88C23.28 33.38 23.69 33.04 24.09 33.13L32.88 35.06C33.2 35.13 33.42 35.46 33.43 35.84C33.43 35.93 33.43 36.03 33.4 36.13L32.18 41.68V41.67ZM83.17 62.43C81.19 62.7 79.15 61.9 76.99 61.05C75.65 60.52 74.27 59.97 72.9 59.71C71.85 59.5 70.76 59.46 69.71 59.42C68.35 59.37 66.94 59.32 65.56 58.91C64.91 58.72 64.29 58.45 63.69 58.2C62.73 57.79 61.83 57.4 60.84 57.31C60.41 57.27 59.97 57.31 59.54 57.33C58.8 57.37 58.04 57.42 57.26 57.16C56.8 57 56.44 56.78 56.1 56.56C55.87 56.41 55.66 56.28 55.42 56.16C54.37 55.66 53.13 55.68 51.81 55.7C50.51 55.72 49.17 55.74 47.96 55.24C47.42 55.02 46.99 54.72 46.59 54.44C46.28 54.22 45.99 54.02 45.64 53.85C44.56 53.31 43.04 53.07 41.11 53.15C40.8 53.16 40.48 53.18 40.17 53.2C38.95 53.27 37.68 53.35 36.34 53.11C36.24 53.09 36.15 53.07 36.05 53.05C34.86 52.79 33.51 52.17 33.03 51.39C32.8 51.02 32.83 50.71 32.89 50.51C32.96 50.3 33.18 50.18 33.39 50.25C33.6 50.31 33.72 50.54 33.65 50.75C33.63 50.81 33.65 50.89 33.71 50.98C34.04 51.52 35.29 52.13 36.48 52.34C37.73 52.56 38.95 52.49 40.13 52.42C40.45 52.4 40.76 52.38 41.08 52.37C43.15 52.28 44.8 52.55 46 53.16C46.39 53.36 46.72 53.59 47.04 53.81C47.43 54.08 47.8 54.34 48.26 54.53C49.32 54.97 50.52 54.95 51.79 54.93C53.14 54.91 54.54 54.89 55.75 55.47C56.04 55.61 56.28 55.77 56.52 55.92C56.84 56.12 57.14 56.32 57.51 56.44C58.15 56.65 58.8 56.62 59.5 56.57C59.95 56.54 60.42 56.52 60.91 56.56C62.02 56.65 63.03 57.09 64 57.51C64.58 57.76 65.17 58.01 65.78 58.19C67.06 58.57 68.36 58.62 69.73 58.67C70.81 58.71 71.92 58.75 73.04 58.97C74.48 59.25 75.9 59.81 77.27 60.35C79.33 61.16 81.27 61.93 83.05 61.68C83.27 61.65 83.47 61.8 83.5 62.02C83.53 62.24 83.38 62.44 83.16 62.47L83.17 62.43ZM86.39 52.15C85.74 51.96 85.12 51.69 84.52 51.43C83.56 51.02 82.65 50.63 81.67 50.55C81.24 50.51 80.8 50.54 80.37 50.57C79.75 50.61 79.12 50.64 78.47 50.5C78.34 50.47 78.22 50.44 78.09 50.39C77.88 50.32 77.77 50.1 77.84 49.89C77.91 49.68 78.13 49.57 78.34 49.64C78.98 49.85 79.63 49.81 80.32 49.77C80.77 49.74 81.24 49.72 81.73 49.76C82.84 49.85 83.85 50.29 84.82 50.71C85.39 50.96 85.99 51.21 86.6 51.39C86.81 51.45 86.93 51.67 86.87 51.88C86.81 52.09 86.59 52.21 86.38 52.15H86.39Z" fill="#006FB5"/>
</g>
<defs>
<clipPath id="clip0_202_207">
<rect width="97.47" height="73" fill="white"/>
</clipPath>
</defs>
</svg>
