<?xml version="1.0" encoding="utf-8"?>
<!-- Generator: Adobe Illustrator 24.2.1, SVG Export Plug-In . SVG Version: 6.00 Build 0)  -->
<svg version="1.1" id="Capa_1" xmlns="http://www.w3.org/2000/svg" xmlns:xlink="http://www.w3.org/1999/xlink" x="0px" y="0px"
	 viewBox="0 0 200 69.48" style="enable-background:new 0 0 200 69.48;" xml:space="preserve">
<style type="text/css">
	.st0{fill:#FFFFFF;}
</style>
<g>
	<g>
		<g>
			<path class="st0" d="M199.98,58.99c0.01-0.21,0.02-0.41,0.02-0.62c0-2.22-0.63-4.44-1.58-6.03V38.07h-0.01v-0.96
				c0,0-3.85,0-7.71,0h-7.57c-0.73,0-1.53,0.26-2.23,0.59c-0.71,0.33-1.33,0.73-1.71,1c-0.2,0.14-0.34,0.24-0.4,0.29h0
				c-0.02,0.01-0.03,0.02-0.03,0.02v-1.9h-14.6c-2.22,0-5.07,0.64-6.35,1.9v-1.9h-26.01v1.9c-1.9-1.58-5.39-1.9-6.98-1.9h-17.13v1.9
				c-0.11-0.11-0.24-0.21-0.37-0.31c-1.74-1.31-5.16-1.59-6.93-1.59H81.35l-4.44,4.76l-4.13-4.76H44.23v32.05h27.92l4.58-4.59
				l3.98,4.59h17.77v-7.3h1.59c2.22,0,5.08,0,7.3-0.95v8.57h14.28v-8.25h0.64c0.95,0,0.95,0,0.95,0.95v7.3h43.15
				c2.86,0,5.71-0.64,7.3-1.9v1.9h13.64c2.86,0,5.71-0.32,7.61-1.59c2.92-1.75,4.76-4.85,5.04-8.55c0.01-0.11,0.03-0.22,0.04-0.33
				L199.98,58.99z M100.07,56.47h-6.35v8.25H83.29l-6.07-6.98l-0.02,0.02l-0.3-0.34l-6.98,7.3H49.62V42.51h20.62l5.63,6.17
				l1.18,1.29l0.16-0.16l6.66-7.3h16.81c3.26,0,6.92,0.81,8.3,4.13c0.16,0.66,0.26,1.39,0.26,2.22
				C109.26,55.2,104.83,56.47,100.07,56.47z M131.79,56.15c0.13,0.19,0.24,0.41,0.35,0.64c0.05,0.1,0.09,0.21,0.13,0.32
				c0,0.01,0.01,0.03,0.01,0.05c0.12,0.31,0.21,0.65,0.28,1.03c0.01,0.04,0.02,0.08,0.02,0.12c0.01,0.09,0.03,0.18,0.04,0.27
				c0.01,0.08,0.02,0.17,0.03,0.26c0.01,0.08,0.01,0.17,0.02,0.25c0.01,0.11,0.02,0.23,0.03,0.35c0,0.07,0,0.14,0.01,0.21
				c0.01,0.2,0.01,0.41,0.01,0.62v4.44h-5.39v-2.86c0-1.27,0-3.49-0.95-4.44c-0.63-0.95-1.9-0.95-3.81-0.95h-5.71v8.25h-5.39V42.19
				h12.06c2.54,0,4.76,0,6.35,0.95s2.86,2.54,2.86,5.07c0,3.49-2.22,5.39-3.81,6.03C130.53,54.88,131.48,55.52,131.79,56.15z
				 M153.69,46.95h-12.38v4.12h12.06v4.44h-12.06v4.44h12.38v4.76h-17.77V42.19h17.77V46.95z M167,64.72h-10.15v-4.76H167
				c0.95,0,1.59,0,2.22-0.64c0.32-0.32,0.63-0.95,0.63-1.59s-0.32-1.27-0.63-1.58c-0.32-0.32-0.95-0.64-1.9-0.64
				c-5.08-0.32-11.1,0-11.1-6.98c0-3.18,1.9-6.67,7.61-6.67h10.47v5.39h-9.83c-0.95,0-1.59,0-2.22,0.32
				c-0.63,0.32-0.63,0.95-0.63,1.58c0,0.95,0.63,1.27,1.27,1.59c0.64,0.32,1.27,0.32,1.9,0.32h2.86c2.86,0,4.76,0.64,6.03,1.9
				c0.96,0.95,1.59,2.54,1.59,4.76C175.25,62.49,172.4,64.72,167,64.72z M194.29,62.49c-1.27,1.27-3.49,2.22-6.67,2.22h-10.15v-4.76
				h10.15c0.95,0,1.59,0,2.22-0.64c0.32-0.32,0.63-0.95,0.63-1.59s-0.32-1.27-0.63-1.58c-0.32-0.32-0.95-0.64-1.9-0.64
				c-5.07-0.32-11.1,0-11.1-6.98c0-3.02,1.72-5.74,5.98-6.55c0.51-0.07,1.05-0.12,1.63-0.12h10.47v5.39h-9.83
				c-0.95,0-1.59,0-2.22,0.32c-0.32,0.32-0.64,0.95-0.64,1.58c0,0.95,0.32,1.27,1.27,1.59c0.64,0.32,1.27,0.32,1.9,0.32h2.86
				c1.39,0,2.44,0.17,3.4,0.51c0.88,0.32,3.78,1.62,4.44,5.02c0.06,0.35,0.09,0.73,0.09,1.14
				C196.19,59.64,195.56,61.23,194.29,62.49z"/>
			<path class="st0" d="M171.76,0v3.81L169.86,0h-14.91v3.81L153.05,0h-20.31c-3.49,0-6.35,0.64-8.88,1.9V0h-14.28v1.9
				C108,0.64,106.1,0,103.56,0H52.48l-3.49,7.93L45.5,0H29.32v3.81L27.74,0H13.78L7.43,14.91L0.14,31.09L0,31.41h16.52l0.11-0.32
				l1.9-4.76h4.13l1.9,5.07h18.4V27.6l1.59,3.81h9.2l1.58-3.81v3.81h44.1v-8.25h0.63c0.64,0,0.64,0,0.64,0.95v6.98h22.84v-1.9
				c1.9,0.95,4.76,1.9,8.57,1.9h9.52l1.9-5.07h4.44l1.9,5.07h18.4v-4.76l2.86,4.76h14.91V0H171.76z M64.22,26.65h-5.08V9.2
				l-0.32,0.73V9.92l-7.38,16.73h-1.93v0h-2.75L39.16,9.2v17.45H28.37l-2.22-4.76H15.36l-1.06,2.26l-1.17,2.51H7.57l9.38-22.21h7.93
				l8.88,21.25V4.44h8.41l0.15,0.32h0.01l4,8.71L49.2,20l0.1-0.33l6.35-15.23h8.57V26.65z M86.11,9.2H73.74v4.12h12.06v4.44H73.74
				v4.44h12.37v4.75H68.35V4.44h17.76V9.2z M108.74,17.38c0.01,0,0.02,0.01,0.03,0.02c0.12,0.13,0.23,0.25,0.31,0.38
				c0.24,0.32,0.47,0.71,0.65,1.17c0.07,0.16,0.12,0.32,0.17,0.49c0.01,0.03,0.02,0.07,0.03,0.09c0.04,0.15,0.08,0.3,0.11,0.46
				c0.01,0.05,0.02,0.1,0.03,0.15c0.03,0.15,0.05,0.31,0.07,0.48c0.01,0.06,0.02,0.11,0.02,0.17c0.02,0.22,0.03,0.45,0.04,0.69
				c0,0.03,0,0.06,0,0.09c0,0.02,0,0.03,0,0.05c0,0.01,0,0.02,0,0.03c0.01,0.17,0.01,0.35,0.01,0.55v4.44h-4.76v-2.54
				c0-0.18,0-0.38,0-0.59c0,0,0,0,0-0.01c-0.01-0.62-0.05-1.32-0.19-2.01c-0.14-0.66-0.36-1.31-0.76-1.84
				c-0.3-0.3-0.6-0.5-0.93-0.64c-0.48-0.31-1.38-0.32-2.87-0.32h-5.71v3.18h0v4.75H89.6V4.44h12.06c2.86,0,4.76,0,6.35,0.95
				c1.55,0.94,2.49,2.48,2.53,4.94c-0.08,3.37-2.24,5.22-3.8,5.85C106.73,16.18,107.79,16.39,108.74,17.38z M119.43,26.65h-5.39
				V4.44h5.39V26.65z M181.28,26.65h-6.98L164.15,9.83v13.96l-0.03-0.03v2.9h-5.36v-0.01h-5.39l-0.98-2.45l-0.92-2.31h-11.1
				l-1.9,5.07h-6.03c-2.53,0-5.71-0.63-7.61-2.53c-1.91-1.9-2.86-4.44-2.86-8.57c0-3.17,0.63-6.35,2.86-8.89
				c1.58-1.9,4.44-2.53,7.93-2.54h5.07V9.2h-5.07c-1.9,0-2.86,0.32-4.13,1.27c-0.95,0.95-1.58,2.86-1.58,5.07
				c0,2.54,0.32,4.12,1.58,5.39c0.96,0.95,2.22,1.27,3.81,1.27h2.22l0.74-1.78l6.55-15.66h7.93l6.54,15.66l2.34,5.6V4.76h7.93
				l9.2,15.54V4.76h5.39L181.28,26.65L181.28,26.65z"/>
			<polygon class="st0" points="149.56,17.13 142.26,17.13 146.07,8.24 			"/>
			<path class="st0" d="M104.46,13.35c-0.07,0.13-0.16,0.24-0.24,0.34c-0.04,0.05-0.08,0.08-0.08,0.08v0
				c-0.08,0.07-0.17,0.14-0.26,0.19c-0.64,0.32-1.59,0.32-2.54,0.32h-6.35V9.2h6.35c0.95,0,1.9,0,2.54,0.32
				c0.41,0.2,0.81,0.54,0.97,1.08c0.01,0.02,0.01,0.05,0.01,0.08c0.02,0.09,0.04,0.18,0.05,0.29
				C105.08,12.07,104.75,12.89,104.46,13.35z"/>
			<polygon class="st0" points="24.24,17.13 17.27,17.13 20.76,8.25 			"/>
		</g>
	</g>
	<g>
		<g>
			<path class="st0" d="M103.87,49.81c0,1.9-1.27,2.86-3.17,2.86h-6.98v-5.71h6.66C102.29,46.95,103.56,47.9,103.87,49.81z"/>
			<polygon class="st0" points="88.33,44.73 88.33,62.81 80.08,53.61 			"/>
			<polygon class="st0" points="73.42,53.61 67.39,60.28 54.39,60.28 54.39,55.52 66.12,55.52 66.12,51.07 54.39,51.07 54.39,46.95 
				67.71,46.95 			"/>
		</g>
	</g>
	<g>
		<g>
			<path class="st0" d="M127.03,49.81c0,0.95-0.32,1.9-0.95,2.22c-0.64,0.32-1.59,0.32-2.54,0.32h-6.35v-5.08h6.35
				c0.95,0,1.9,0,2.54,0.32C126.72,47.9,127.35,48.54,127.03,49.81z"/>
		</g>
	</g>
</g>
</svg>
