<?xml version="1.0" encoding="utf-8"?>
<!-- Generator: Adobe Illustrator 24.2.1, SVG Export Plug-In . SVG Version: 6.00 Build 0)  -->
<svg version="1.1" id="Capa_1" xmlns="http://www.w3.org/2000/svg" xmlns:xlink="http://www.w3.org/1999/xlink" x="0px" y="0px"
	 viewBox="0 0 200 150.11" style="enable-background:new 0 0 200 150.11;" xml:space="preserve">
<style type="text/css">
	.st0{fill:#FFFFFF;}
</style>
<g>
	<path class="st0" d="M25.16,0h36.56v124.81c0,13.89-11.27,25.02-25.02,25.02H0V97.18c0,0,11.27,3.16,25.7,3.16
		c23.79,0,30.8-9.21,30.8-20.48V50.86H35.06V80c0,7.15-4.67,12.37-13.33,12.37c-7.29,0-14.57-2.2-21.58-5.63V25.02
		C0.14,11.14,11.41,0,25.16,0z"/>
	<path class="st0" d="M94.3,0H131v125.09c0,13.88-11.27,25.02-25.02,25.02h-36.7V92.37c6.32,5.37,17.32,8.8,35.05,7.98
		c9.62-0.41,19.66-3.02,19.66-3.02V86.74c-5.09,2.48-11.14,4.95-18.97,5.5c-13.47,1.1-21.57-5.5-21.57-17.18
		c0-11.55,8.11-18.15,21.57-17.18c7.84,0.54,13.89,2.88,18.97,5.5V52.79c0,0-10.17-2.61-19.66-3.02
		c-17.73-0.83-28.72,2.61-35.05,7.97V25.02C69.28,11.14,80.55,0,94.3,0z"/>
	<path class="st0" d="M165.08,70.38c-0.13,0.13-0.96,0.13-1.37,0.13h-13.06v-12.1h13.06c0.41,0,1.1,0.14,1.37,0.14
		c2.75,0.41,5.09,2.61,5.09,5.91C170.17,67.76,167.83,69.97,165.08,70.38z"/>
	<path class="st0" d="M150.65,77.93h14.43c0.55,0,1.38,0,1.79,0.14c2.75,0.69,5.09,3.16,5.09,6.47c0,3.43-2.34,5.9-5.09,6.46
		c-0.41,0-1.38,0.14-1.79,0.14h-14.43V77.93z"/>
	<path class="st0" d="M200,0v124.95c0,13.88-11.27,25.02-25.02,25.02h-36.7V99.11h38.77c9.07,0,15.94-4.95,15.94-12.51
		c0-7.01-6.18-11.54-14.29-12.1v-0.27c7.42-0.97,11.4-5.77,11.4-11.41c0-7.15-5.9-11.27-13.88-11.68c-0.69-0.14-1.65-0.14-2.48-0.14
		h-35.32V25.02C138.42,11.14,149.69,0,163.44,0H200z"/>
	<path class="st0" d="M171.96,84.54c0,3.43-2.34,5.9-5.09,6.46c-0.41,0-1.38,0.14-1.79,0.14h-14.43v-13.2h14.43
		c0.55,0,1.38,0,1.79,0.14C169.63,78.76,171.96,81.24,171.96,84.54z"/>
	<path class="st0" d="M200,0v124.95c0,13.88-11.27,25.02-25.02,25.02h-36.7V99.11h38.77c9.07,0,15.94-4.95,15.94-12.51
		c0-7.01-6.18-11.54-14.29-12.1v-0.27c7.42-0.97,11.4-5.77,11.4-11.41c0-7.15-5.9-11.27-13.88-11.68c-0.69-0.14-1.65-0.14-2.48-0.14
		h-35.32V25.02C138.42,11.14,149.69,0,163.44,0H200z"/>
	<path class="st0" d="M170.17,64.47c0,3.29-2.34,5.5-5.09,5.91c-0.13,0.13-0.96,0.13-1.37,0.13h-13.06v-12.1h13.06
		c0.41,0,1.1,0.14,1.37,0.14C167.83,58.97,170.17,61.17,170.17,64.47z"/>
	<path class="st0" d="M61.72,0v124.81c0,13.89-11.27,25.02-25.02,25.02H0V97.18c0,0,11.27,3.16,25.7,3.16
		c23.79,0,30.8-9.21,30.8-20.48V50.86H35.06V80c0,7.15-4.67,12.37-13.33,12.37c-7.29,0-14.57-2.2-21.58-5.63V25.02
		C0.14,11.14,11.41,0,25.16,0H61.72z"/>
	<path class="st0" d="M131,0v125.09c0,13.88-11.27,25.02-25.02,25.02h-36.7V92.37c6.32,5.37,17.32,8.8,35.05,7.98
		c9.62-0.41,19.66-3.02,19.66-3.02V86.74c-5.09,2.48-11.14,4.95-18.97,5.5c-13.47,1.1-21.57-5.5-21.57-17.18
		c0-11.55,8.11-18.15,21.57-17.18c7.84,0.54,13.89,2.88,18.97,5.5V52.79c0,0-10.17-2.61-19.66-3.02
		c-17.73-0.83-28.72,2.61-35.05,7.97V25.02C69.28,11.14,80.55,0,94.3,0H131z"/>
</g>
</svg>
