<?xml version="1.0" encoding="utf-8"?>
<!-- Generator: Adobe Illustrator 24.2.1, SVG Export Plug-In . SVG Version: 6.00 Build 0)  -->
<svg version="1.1" id="Capa_1" xmlns="http://www.w3.org/2000/svg" xmlns:xlink="http://www.w3.org/1999/xlink" x="0px" y="0px"
	 viewBox="0 0 410.67 72.02" style="enable-background:new 0 0 410.67 72.02;" xml:space="preserve">
<style type="text/css">
	.st0{fill:#FFFFFF;}
</style>
<g>
	<path class="st0" d="M251.2,43.76c-2.6,0-3.46-1.6-3.46-4V28.94h8.51l0.01-4.76h-8.51v-7.26h-5.26v7.26h-4.86v4.76h4.86v10.91
		c0,5.56,2.15,8.87,8.31,8.87c2.3,0.01,4.56-0.63,6.51-1.85l-1.5-4.46C254.41,43.24,252.83,43.71,251.2,43.76z"/>
	<path class="st0" d="M272.46,23.57l0.03,0.01c-7,0-11.92,5.11-11.92,12.57c0,7.61,5.11,12.57,12.27,12.57
		c3.58,0.13,7.07-1.07,9.82-3.36l-2.55-3.86c-1.99,1.59-4.45,2.47-7,2.5c-3.36,0-6.41-1.55-7.16-5.86h17.78c0.05-0.65,0.1-1.3,0.1-2
		C283.83,28.68,279.17,23.57,272.46,23.57z M266.04,34.05c0.55-3.46,2.65-5.81,6.36-5.81c3.35,0,5.5,2.1,6.05,5.81H266.04z"/>
	<path class="st0" d="M225.77,33.75l-2.45-0.35c-2.25-0.3-4.06-0.75-4.06-2.35c0-1.75,1.7-2.8,4.56-2.8
		c2.62,0.04,5.19,0.74,7.46,2.05l2.24-4.22c-2.95-1.75-6.34-2.62-9.77-2.5c-6.06,0-10,2.91-10,7.66c0,3.91,2.9,6.31,8.26,7.06
		l2.45,0.35c2.85,0.4,4.21,1.15,4.21,2.5c0,1.85-1.9,2.91-5.46,2.91c-2.87,0.09-5.69-0.79-8-2.5l-2.37,4.05
		c3.03,2.12,6.67,3.21,10.37,3.11c6.91,0,10.92-3.26,10.92-7.81C234.13,36.7,230.97,34.5,225.77,33.75z"/>
	<path class="st0" d="M169.01,23.6c-3.37-0.22-6.59,1.41-8.41,4.26c-1.66-2.76-4.69-4.4-7.91-4.26c-2.8-0.14-5.46,1.22-7,3.56v-3
		h-5.21v23.96h5.26V34.85c0-4.16,2.3-6.36,5.86-6.36s5.21,2.25,5.21,6.31v13.32h5.23V34.85c0-4.16,2.4-6.36,5.86-6.36
		c3.46,0,5.26,2.25,5.26,6.31v13.32h5.27v-15C178.43,27.46,174.82,23.65,169.01,23.6z"/>
	<path class="st0" d="M207.78,24.15h-5.21v2.91c-1.8-2.31-4.61-3.6-7.53-3.48c-6.71,0-12,5.26-12,12.57s5.26,12.57,12,12.57
		c2.94,0.12,5.76-1.18,7.56-3.51v2.9h5.21l-0.03-11.96V24.15z M195.66,43.81c-4.51,0-7.26-3.45-7.26-7.66s2.75-7.66,7.26-7.66
		c4.31,0,7.21,3.31,7.21,7.66S199.97,43.81,195.66,43.81z"/>
	<path class="st0" d="M410.55,46.84c-0.08-0.18-0.19-0.34-0.33-0.48c-0.14-0.14-0.31-0.25-0.49-0.33c-0.19-0.08-0.39-0.12-0.6-0.12
		c-0.21-0.01-0.43,0.04-0.62,0.12c-0.37,0.15-0.66,0.44-0.82,0.81c-0.16,0.38-0.16,0.8,0,1.18c0.25,0.57,0.82,0.94,1.44,0.93
		c0.21,0,0.41-0.04,0.6-0.12c0.18-0.08,0.35-0.19,0.49-0.33c0.14-0.14,0.25-0.3,0.33-0.48C410.71,47.64,410.71,47.22,410.55,46.84z
		 M409.96,48.27c-0.11,0.11-0.23,0.19-0.37,0.25c-0.14,0.06-0.29,0.09-0.44,0.09c-0.17,0.01-0.33-0.03-0.49-0.09
		c-0.14-0.06-0.27-0.14-0.38-0.25c-0.1-0.11-0.19-0.23-0.25-0.37c-0.26-0.6,0.03-1.3,0.63-1.56c0.15-0.06,0.31-0.09,0.47-0.09
		c0.16,0,0.31,0.03,0.46,0.09c0.14,0.06,0.26,0.14,0.37,0.25C410.42,47.05,410.42,47.81,409.96,48.27z"/>
	<path class="st0" d="M397.83,27.08c-1.8-2.33-4.62-3.63-7.56-3.51c-6.71,0-12,5.26-12,12.57s5.26,12.57,12,12.57
		c2.94,0.12,5.76-1.18,7.56-3.51v2.9h5.21V14.56h-5.21V27.08z M390.94,43.81c-4.51,0-7.26-3.46-7.26-7.66
		c0-4.21,2.75-7.66,7.26-7.66c4.31,0,7.21,3.31,7.21,7.66S395.25,43.81,390.94,43.81z"/>
	<path class="st0" d="M409.52,47.55c0.06-0.02,0.11-0.06,0.15-0.1c0.08-0.07,0.12-0.18,0.12-0.29c0.01-0.13-0.05-0.25-0.15-0.33
		c-0.06-0.05-0.13-0.08-0.2-0.1c-0.07-0.02-0.15-0.03-0.22-0.02h0l0,0l-0.65,0.01v1.4h0.3v-0.53h0.14l0.43,0.53h0.36l-0.46-0.53
		C409.4,47.58,409.46,47.57,409.52,47.55z M408.87,47.35v-0.38l0.35,0.1c0.06-0.02,0.13-0.02,0.19,0c0.05,0.03,0.07,0.08,0.07,0.14
		s-0.02,0.11-0.07,0.14c-0.06,0.02-0.13,0.02-0.19,0H408.87z"/>
	<path class="st0" d="M294.38,27.09v-2.91h-5.16v23.94h5.21V34.7c0-4,1.7-6.16,5.11-6.16c1.12-0.02,2.22,0.19,3.26,0.6l1.6-4.91
		c-1.19-0.43-2.45-0.65-3.71-0.65C298.1,23.5,295.68,24.85,294.38,27.09z"/>
	<path class="st0" d="M366.73,27.09v-2.91h-5.16v23.94h5.21V34.7c0-4,1.7-6.16,5.11-6.16c1.12-0.02,2.22,0.19,3.26,0.6l1.6-4.91
		c-1.19-0.43-2.45-0.65-3.71-0.65C370.45,23.5,368.03,24.85,366.73,27.09z"/>
	<path class="st0" d="M318.57,28.48c2.26,0.02,4.46,0.78,6.26,2.15l2.5-4.21c-2.41-1.99-5.48-3.01-8.61-2.86
		c-7.71,0-12.77,5.31-12.77,12.57v0.02c0,7.26,5.06,12.57,12.77,12.57c3.13,0.15,6.2-0.87,8.61-2.86l-2.5-4.21
		c-1.8,1.37-4,2.13-6.26,2.15c-4.16,0-7.21-3.06-7.21-7.66S314.42,28.53,318.57,28.48z"/>
	<path class="st0" d="M349.52,27.06c-1.8-2.33-4.62-3.63-7.56-3.51c-6.71,0-12,5.26-12,12.57s5.26,12.57,12,12.57
		c2.94,0.12,5.76-1.18,7.56-3.51v2.9h5.21V24.15h-5.21V27.06z M342.61,43.81c-4.51,0-7.26-3.46-7.26-7.66
		c0-4.21,2.75-7.66,7.26-7.66c4.31,0,7.21,3.31,7.21,7.66S346.92,43.81,342.61,43.81z"/>
	<path class="st0" d="M44.5,36.01c-0.01-11.04,5.06-21.48,13.75-28.3c-0.01-0.01-0.02-0.02-0.03-0.02
		C42.59-4.58,19.98-1.85,7.7,13.77C-4.59,29.4-1.87,52.03,13.76,64.32c13.06,10.26,31.43,10.26,44.49,0
		c-0.01-0.01-0.01-0.01-0.02-0.02C49.55,57.48,44.49,47.05,44.5,36.01z"/>
	<path class="st0" d="M58.26,7.69L58.25,7.7c2.25,1.77,4.29,3.81,6.06,6.06c7.68,9.77,9.5,22.27,5.97,33.27
		c-2.12,6.6-6.16,12.66-12.02,17.27l-0.01,0.01c6.34,4.99,14.18,7.7,22.25,7.7c19.88,0,36-16.12,36-36c0-8.07-2.71-15.91-7.7-22.26
		C96.51-1.88,73.89-4.59,58.26,7.69z"/>
	<polygon class="st0" points="112.34,57.15 112.81,57.15 112.81,58.31 113.04,58.3 113.04,57.14 113.51,57.14 113.51,56.91 
		112.34,56.91 	"/>
	<polygon class="st0" points="114.62,57.9 114.2,56.9 113.83,56.9 113.83,58.3 114.04,58.3 114.04,57.25 114.43,58.16 114.7,58.16 
		115.09,57.25 115.09,58.31 115.35,58.3 115.35,56.9 115.04,56.9 	"/>
</g>
</svg>
