<?xml version="1.0" encoding="utf-8"?>
<!-- Generator: Adobe Illustrator 24.2.1, SVG Export Plug-In . SVG Version: 6.00 Build 0)  -->
<svg version="1.1" id="Capa_1" xmlns="http://www.w3.org/2000/svg" xmlns:xlink="http://www.w3.org/1999/xlink" x="0px" y="0px"
	 viewBox="0 0 200 68.13" style="enable-background:new 0 0 200 68.13;" xml:space="preserve">
<style type="text/css">
	.st0{fill:#FFFFFF;}
</style>
<g>
	<path class="st0" d="M141.84,45.22c0,13.71-10.95,22.92-27.26,22.92c-7.86,0-14.97-1.8-19.01-4.83l-1.18-0.9l5.82-14.36l1.95,1.17
		c3.91,2.34,8.91,3.71,13.71,3.71c3.67,0,7.98-1.42,7.98-5.39c0-2.07-1.21-3.89-7.37-7.08c-6.54-3.53-14-8.78-14-18.26
		C102.48,9.12,113.4,0,129.02,0c6.39,0,11.51,1.11,15.62,3.38l1.46,0.8l-5.51,14.75l-1.97-1.08c-0.77-0.43-4.93-2.54-10.32-2.54
		c-5.54,0-7.9,2.41-7.9,4.64c0,2.39,3.05,4.29,8.09,7.1C137.46,31.78,141.84,37.72,141.84,45.22z"/>
	<path class="st0" d="M72.3,1L38.15,67.19c0,0.01-18.34,0.01-18.34,0.01l-7.46-53.45l18.1,11.37L0,1h29.27l2.97,31.44
		c0.37,3.73,0.67,7.4,0.96,11.17c1.52-3.61,3.3-7.56,5.35-11.92L53.04,1C53.04,1,72.3,1,72.3,1z"/>
	<polygon class="st0" points="98.02,1 85.46,67.2 68.21,67.2 80.79,1 	"/>
	<path class="st0" d="M192.25,1h-20.03L140,67.2h18.47l7.41-16.17h14.93l1.29,16.17H200L192.25,1z M171.54,37l4.92-10.7
		c0.7-1.48,1.4-3.17,2.09-4.94c0.12,1.57,0.25,3.05,0.33,4.32L179.92,37C179.92,37,171.54,37,171.54,37z"/>
</g>
</svg>
