<?xml version="1.0" encoding="utf-8"?>
<!-- Generator: Adobe Illustrator 24.2.1, SVG Export Plug-In . SVG Version: 6.00 Build 0)  -->
<svg version="1.1" id="Capa_1" xmlns="http://www.w3.org/2000/svg" xmlns:xlink="http://www.w3.org/1999/xlink" x="0px" y="0px"
	 viewBox="0 0 187.09 89.3" style="enable-background:new 0 0 187.09 89.3;" xml:space="preserve">
<style type="text/css">
	.st0{fill:#FFFFFF;}
</style>
<g>
	<path class="st0" d="M66.2,20.47v36.75v1.56h-7.6v-1.56l0,0V20.47c0-1.27-0.88-2.24-1.95-3.12c-1.07-0.88-2.92-0.97-4-0.97
		c-1.07,0-3.31,0.19-4.48,1.46c-1.07,1.17-1.95,2.53-1.95,3.9v35.39v1.56H39v-7.7V21.84c0-1.36-0.88-2.83-1.95-3.9
		c-1.07-1.17-3.02-1.46-4.19-1.46h-0.19c-1.07,0-2.92,0.1-4,0.97c-0.88,0.68-1.56,1.46-1.85,2.44c0,0.19-0.1,0.49-0.1,0.68v38.22
		h-7.51v-1.56V20.57c0-3.12,0.97-5.46,3.31-7.51c0.97-0.88,2.24-1.75,3.51-2.53c1.75-0.97,4-1.46,6.73-1.46
		c2.34,0,4.97,0.68,6.92,1.75c0.39,0.19,0.78,0.49,1.17,0.78c0.97,0.78,1.66,1.46,1.85,1.75l0,0c0,0,0.78-0.97,1.95-1.85
		c0.39-0.29,0.78-0.49,1.17-0.78c1.95-1.07,4.58-1.75,6.92-1.75c2.63,0,4.87,0.49,6.73,1.46c1.36,0.68,2.53,1.56,3.51,2.53
		C65.22,15.01,66.2,17.35,66.2,20.47z"/>
	<path class="st0" d="M36.07,74.09c-0.29-0.19-0.88-0.29-1.85-0.29H30.9v3.7h3.31c0.97,0,1.66-0.1,1.95-0.39
		c0.49-0.29,0.68-0.88,0.68-1.46C36.85,74.87,36.66,74.39,36.07,74.09z M36.07,74.09c-0.29-0.19-0.88-0.29-1.85-0.29H30.9v3.7h3.31
		c0.97,0,1.66-0.1,1.95-0.39c0.49-0.29,0.68-0.88,0.68-1.46C36.85,74.87,36.66,74.39,36.07,74.09z M36.07,74.09
		c-0.29-0.19-0.88-0.29-1.85-0.29H30.9v3.7h3.31c0.97,0,1.66-0.1,1.95-0.39c0.49-0.29,0.68-0.88,0.68-1.46
		C36.85,74.87,36.66,74.39,36.07,74.09z M36.07,74.09c-0.29-0.19-0.88-0.29-1.85-0.29H30.9v3.7h3.31c0.97,0,1.66-0.1,1.95-0.39
		c0.49-0.29,0.68-0.88,0.68-1.46C36.85,74.87,36.66,74.39,36.07,74.09z M36.07,74.09c-0.29-0.19-0.88-0.29-1.85-0.29H30.9v3.7h3.31
		c0.97,0,1.66-0.1,1.95-0.39c0.49-0.29,0.68-0.88,0.68-1.46C36.85,74.87,36.66,74.39,36.07,74.09z M100.03,73.7l-2.24,5.65h4.29
		L100.03,73.7z M100.03,73.7l-2.24,5.65h4.29L100.03,73.7z M36.07,74.09c-0.29-0.19-0.88-0.29-1.85-0.29H30.9v3.7h3.31
		c0.97,0,1.66-0.1,1.95-0.39c0.49-0.29,0.68-0.88,0.68-1.46C36.85,74.87,36.66,74.39,36.07,74.09z M36.07,74.09
		c-0.29-0.19-0.88-0.29-1.85-0.29H30.9v3.7h3.31c0.97,0,1.66-0.1,1.95-0.39c0.49-0.29,0.68-0.88,0.68-1.46
		C36.85,74.87,36.66,74.39,36.07,74.09z M100.03,73.7l-2.24,5.65h4.29L100.03,73.7z M137.46,73.7l-2.24,5.65h4.39L137.46,73.7z
		 M137.46,73.7l-2.24,5.65h4.39L137.46,73.7z M100.03,73.7l-2.24,5.65h4.29L100.03,73.7z M36.07,74.09
		c-0.29-0.19-0.88-0.29-1.85-0.29H30.9v3.7h3.31c0.97,0,1.66-0.1,1.95-0.39c0.49-0.29,0.68-0.88,0.68-1.46
		C36.85,74.87,36.66,74.39,36.07,74.09z M36.07,74.09c-0.29-0.19-0.88-0.29-1.85-0.29H30.9v3.7h3.31c0.97,0,1.66-0.1,1.95-0.39
		c0.49-0.29,0.68-0.88,0.68-1.46C36.85,74.87,36.66,74.39,36.07,74.09z M100.03,73.7l-2.24,5.65h4.29L100.03,73.7z M137.46,73.7
		l-2.24,5.65h4.39L137.46,73.7z M155.11,74.09c-0.29-0.19-0.88-0.29-1.85-0.29h-3.31v3.7h3.31c0.97,0,1.66-0.1,1.95-0.39
		c0.49-0.29,0.68-0.88,0.68-1.46C155.89,74.87,155.6,74.39,155.11,74.09z M155.11,74.09c-0.29-0.19-0.88-0.29-1.85-0.29h-3.31v3.7
		h3.31c0.97,0,1.66-0.1,1.95-0.39c0.49-0.29,0.68-0.88,0.68-1.46C155.89,74.87,155.6,74.39,155.11,74.09z M137.46,73.7l-2.24,5.65
		h4.39L137.46,73.7z M100.03,73.7l-2.24,5.65h4.29L100.03,73.7z M36.07,74.09c-0.29-0.19-0.88-0.29-1.85-0.29H30.9v3.7h3.31
		c0.97,0,1.66-0.1,1.95-0.39c0.49-0.29,0.68-0.88,0.68-1.46C36.85,74.87,36.66,74.39,36.07,74.09z M0,67.95v11.02
		C0,84.82,2.34,89.3,10.82,89.3h165.44c7.31,0,10.82-2.73,10.82-10.33V67.95H0z M36.95,83.94c-0.1-0.1-0.1-0.19-0.1-0.39
		c0-0.19-0.1-0.58-0.1-1.27c-0.1-1.27-0.49-2.05-0.97-2.53c-0.58-0.49-1.56-0.68-2.92-0.68H31v4.97h-1.85v-11.7h5.26
		c1.56,0,2.63,0.19,3.22,0.58c0.39,0.29,0.68,0.68,0.97,1.07C38.8,74.48,39,74.97,39,75.46c0,0.97-0.29,1.75-0.97,2.34
		c-0.39,0.29-0.78,0.49-1.46,0.68c0.78,0.39,1.27,0.78,1.56,1.27c0.29,0.49,0.49,1.27,0.49,2.34c0,0.68,0.1,1.17,0.1,1.27
		c0,0.19,0.1,0.29,0.19,0.49h-1.95V83.94z M52.55,78.87h-6.92c0,0.88,0.19,1.56,0.58,2.24c0.29,0.49,0.68,0.88,1.07,1.07
		c0.49,0.19,1.07,0.29,1.85,0.29h3.51v1.46h-3.9c-0.97,0-1.75-0.1-2.34-0.29c-1.07-0.39-1.85-1.27-2.34-2.53
		c-0.29-0.68-0.39-1.56-0.39-2.63c0-1.36,0.19-2.53,0.68-3.41c0.49-0.97,1.07-1.66,1.85-2.05c0.78-0.39,1.85-0.58,3.12-0.58h3.31
		v1.36h-3.41c-0.58,0-1.07,0-1.46,0.1c-0.39,0.1-0.68,0.19-0.88,0.49c-0.39,0.29-0.68,0.68-0.88,1.17s-0.29,1.07-0.29,1.85h6.92
		v1.46H52.55z M67.95,83.94h-2.14l-5.95-9.26v9.26h-1.75v-11.6h2.24l5.85,9.26v-9.26h1.75C67.95,72.34,67.95,83.94,67.95,83.94z
		 M82.67,73.8h-4v10.14h-1.85V73.8h-4v-1.46h9.85V73.8z M103.83,83.94l-1.17-3.02H97.2l-1.27,3.02h-1.95l4.78-11.6h2.44l4.58,11.6
		H103.83z M127.13,83.94h-3.61c-1.07,0-1.85-0.1-2.44-0.29c-1.17-0.29-2.14-1.17-2.63-2.44c-0.39-0.88-0.58-1.95-0.58-3.02
		c0-1.36,0.29-2.53,0.88-3.61c0.49-0.88,1.07-1.46,1.75-1.75c0.68-0.29,1.75-0.49,3.02-0.49h3.7v1.46h-3.61
		c-0.78,0-1.36,0.1-1.75,0.19c-0.39,0.1-0.78,0.39-0.97,0.68c-0.29,0.39-0.58,0.88-0.68,1.46c-0.19,0.58-0.29,1.36-0.29,2.05
		c0,1.46,0.29,2.53,0.97,3.31c0.29,0.39,0.68,0.58,1.07,0.68c0.39,0.1,1.07,0.19,1.85,0.19h3.51v1.56H127.13z M141.36,83.94
		l-1.17-3.02h-5.46l-1.27,3.02h-1.95l4.78-11.6h2.44l4.58,11.6H141.36z M155.99,83.94c-0.1-0.1-0.1-0.19-0.1-0.39
		c0-0.19-0.1-0.58-0.1-1.27c-0.1-1.27-0.49-2.05-0.97-2.53c-0.49-0.49-1.56-0.68-2.92-0.68h-1.85v4.97h-1.85v-11.7h5.26
		c1.56,0,2.53,0.19,3.22,0.58c0.39,0.29,0.68,0.68,0.97,1.07c0.19,0.49,0.29,0.97,0.29,1.46c0,0.97-0.29,1.75-0.97,2.34
		c-0.39,0.29-0.88,0.49-1.46,0.68c0.78,0.39,1.27,0.78,1.56,1.27c0.29,0.49,0.49,1.27,0.49,2.34c0,0.68,0.1,1.17,0.1,1.27
		c0,0.19,0.1,0.29,0.19,0.49h-1.85V83.94z M155.89,75.65c0-0.78-0.19-1.27-0.78-1.56c-0.29-0.19-0.88-0.29-1.85-0.29h-3.31v3.7h3.31
		c0.97,0,1.66-0.1,1.95-0.39C155.69,76.82,155.89,76.34,155.89,75.65z M135.22,79.46h4.39l-2.14-5.65L135.22,79.46z M97.78,79.46
		h4.29l-2.14-5.65L97.78,79.46z M36.85,75.65c0-0.78-0.19-1.27-0.78-1.56c-0.29-0.19-0.88-0.29-1.85-0.29H30.9v3.7h3.31
		c0.97,0,1.66-0.1,1.95-0.39C36.66,76.82,36.85,76.34,36.85,75.65z M36.07,74.09c-0.29-0.19-0.88-0.29-1.85-0.29H30.9v3.7h3.31
		c0.97,0,1.66-0.1,1.95-0.39c0.49-0.29,0.68-0.88,0.68-1.46C36.85,74.87,36.66,74.39,36.07,74.09z M100.03,73.7l-2.24,5.65h4.29
		L100.03,73.7z M137.46,73.7l-2.24,5.65h4.39L137.46,73.7z M155.11,74.09c-0.29-0.19-0.88-0.29-1.85-0.29h-3.31v3.7h3.31
		c0.97,0,1.66-0.1,1.95-0.39c0.49-0.29,0.68-0.88,0.68-1.46C155.89,74.87,155.6,74.39,155.11,74.09z M155.11,74.09
		c-0.29-0.19-0.88-0.29-1.85-0.29h-3.31v3.7h3.31c0.97,0,1.66-0.1,1.95-0.39c0.49-0.29,0.68-0.88,0.68-1.46
		C155.89,74.87,155.6,74.39,155.11,74.09z M137.46,73.7l-2.24,5.65h4.39L137.46,73.7z M100.03,73.7l-2.24,5.65h4.29L100.03,73.7z
		 M36.07,74.09c-0.29-0.19-0.88-0.29-1.85-0.29H30.9v3.7h3.31c0.97,0,1.66-0.1,1.95-0.39c0.49-0.29,0.68-0.88,0.68-1.46
		C36.85,74.87,36.66,74.39,36.07,74.09z M36.07,74.09c-0.29-0.19-0.88-0.29-1.85-0.29H30.9v3.7h3.31c0.97,0,1.66-0.1,1.95-0.39
		c0.49-0.29,0.68-0.88,0.68-1.46C36.85,74.87,36.66,74.39,36.07,74.09z M100.03,73.7l-2.24,5.65h4.29L100.03,73.7z M100.03,73.7
		l-2.24,5.65h4.29L100.03,73.7z M36.07,74.09c-0.29-0.19-0.88-0.29-1.85-0.29H30.9v3.7h3.31c0.97,0,1.66-0.1,1.95-0.39
		c0.49-0.29,0.68-0.88,0.68-1.46C36.85,74.87,36.66,74.39,36.07,74.09z M36.07,74.09c-0.29-0.19-0.88-0.29-1.85-0.29H30.9v3.7h3.31
		c0.97,0,1.66-0.1,1.95-0.39c0.49-0.29,0.68-0.88,0.68-1.46C36.85,74.87,36.66,74.39,36.07,74.09z M36.07,74.09
		c-0.29-0.19-0.88-0.29-1.85-0.29H30.9v3.7h3.31c0.97,0,1.66-0.1,1.95-0.39c0.49-0.29,0.68-0.88,0.68-1.46
		C36.85,74.87,36.66,74.39,36.07,74.09z M36.07,74.09c-0.29-0.19-0.88-0.29-1.85-0.29H30.9v3.7h3.31c0.97,0,1.66-0.1,1.95-0.39
		c0.49-0.29,0.68-0.88,0.68-1.46C36.85,74.87,36.66,74.39,36.07,74.09z M36.07,74.09c-0.29-0.19-0.88-0.29-1.85-0.29H30.9v3.7h3.31
		c0.97,0,1.66-0.1,1.95-0.39c0.49-0.29,0.68-0.88,0.68-1.46C36.85,74.87,36.66,74.39,36.07,74.09z M147.7,51.18
		c-5.36-0.1-9.16-2.05-12.97-5.26c-1.85-1.56-3.61-3.51-5.56-5.75c-1.66-1.85-3.22-4.19-4.68-6.34c1.36-2.05,2.92-4.39,4.68-6.34
		c1.95-2.24,3.7-4.19,5.56-5.75c3.8-3.22,7.6-5.07,12.97-5.26h35.29v-1.46H147.7h-0.1h-0.88c-2.44,0.1-4.58,0.58-6.53,1.36h0.1
		c-4.39,1.75-7.7,5.17-12.09,9.85l0,0c-1.36,1.46-2.63,3.12-3.7,4.78c-0.97,1.36-1.36,2.24-1.56,2.63l0.58,1.07l0,0
		c1.17,2.24,2.83,4.48,4.68,6.43c6.24,6.73,10.53,10.82,18.62,11.21h1.07h35.29v-1.46H147.7V51.18z M147.7,51.18
		c-5.36-0.1-9.16-2.05-12.97-5.26c-1.85-1.56-3.61-3.51-5.56-5.75c-1.66-1.85-3.22-4.19-4.68-6.34c1.36-2.05,2.92-4.39,4.68-6.34
		c1.95-2.24,3.7-4.19,5.56-5.75c3.8-3.22,7.6-5.07,12.97-5.26h35.29v-1.46H147.7h-0.1h-0.88c-2.44,0.1-4.58,0.58-6.53,1.36h0.1
		c-4.39,1.75-7.7,5.17-12.09,9.85l0,0c-1.36,1.46-2.63,3.12-3.7,4.78c-0.97,1.36-1.36,2.24-1.56,2.63l0.58,1.07l0,0
		c1.17,2.24,2.83,4.48,4.68,6.43c6.24,6.73,10.53,10.82,18.62,11.21h1.07h35.29v-1.46H147.7V51.18z M176.17,0H10.82
		C3.12,0,0,3.61,0,10.33v55.96h186.99V10.33C186.99,3.41,184.16,0,176.17,0z M183.09,63.76H3.9v-50.7c0-7.7,2.44-9.46,10.33-9.46
		h158.52c6.63,0,9.16,1.66,10.04,5.36h-34.8c-0.19,0-0.49,0-0.78,0c-1.07,0-2.14,0.1-3.02,0.19c-1.66,0.29-3.22,0.58-4.68,1.07l0,0
		c-1.36,0.39-2.53,0.97-3.8,1.66c-0.88,0.49-1.75,0.97-2.53,1.56l-0.58,0.39c-0.1,0.1-0.19,0.1-0.29,0.19
		c-0.39,0.29-0.88,0.68-1.36,1.07c-0.58,0.49-1.17,0.88-1.75,1.46h0.1c-1.46,1.27-3.02,2.73-4.48,4.39
		c-0.19,0.19-0.39,0.39-0.58,0.68c-1.17,1.36-2.14,2.24-3.9,4.58l-9.46-17.06h-1.66l10.24,18.43l0.78,1.56v0.1c0,0,0,0,0-0.1
		c1.56-2.73,3.51-4.87,5.56-7.12c1.85-2.14,3.31-3.61,4.97-4.97c0.19-0.1,0.39-0.29,0.58-0.39h-0.1c0.58-0.49,1.27-0.97,2.05-1.46
		s1.56-0.97,2.44-1.56c0.1,0,0.1-0.1,0.19-0.1c1.07-0.58,2.14-1.07,3.31-1.56c2.73-1.07,5.65-1.56,8.77-1.66h35
		c0.1,0.49,0.1,1.07,0.1,1.66H147.8c-2.92,0-5.46,0.49-7.7,1.27c-0.19,0.1-0.39,0.19-0.58,0.19c-1.07,0.39-2.24,0.97-3.31,1.66
		c-0.78,0.49-1.56,0.97-2.14,1.46h0.1c-0.1,0.1-0.19,0.19-0.29,0.19c-2.05,1.56-4,3.22-6.14,5.46c-0.49,0.49-0.88,0.97-1.36,1.56
		c-2.34,2.73-4.19,5.26-5.95,8.09l-0.1,0.29l-0.19-0.29L107.44,9.07h-1.66l13.55,24.47l0.1,0.19l-0.1,0.29
		c-1.66,3.12-4.09,6.14-6.63,8.97c-3.02,3.22-5.65,5.75-8.48,7.6l-2.14-0.49c3.41-1.95,6.34-4.87,9.94-8.77
		c2.14-2.34,4.39-4.78,5.65-7.41l-0.68-1.27L103.83,9.07h-1.66l13.94,24.96c-1.46,2.14-3.31,4.19-5.07,6.14
		c-1.95,2.24-3.7,4.19-5.56,5.75c-4.19,3.61-8.58,5.56-15.11,5.26c-0.19,0-0.29,0-0.49,0c-1.46-0.19-2.83-0.49-4-0.78
		c-2.34-0.78-4.09-1.75-4.87-2.44c-1.36-1.17-1.95-4-1.95-5.95v-4.48h18.52c0.68,0,1.95-0.39,3.02-1.17
		c1.07-0.78,2.05-2.05,2.05-3.9v-0.19c0-1.75,0-3.41,0-5.17c0-0.1,0-0.19,0-0.29v-4.58l0,0c0-3.12-1.66-6.63-4.29-8.77
		c-3.02-2.34-7.21-4.19-11.6-4.19c-4.48,0-8.38,1.46-11.41,3.8c-2.92,2.24-4.39,6.04-4.39,9.46v19.6c0,3.61,0.88,7.9,3.61,10.53
		c2.53,2.44,5.85,4.48,9.85,5.36c2.05,0.49,3.31,0.68,4.87,0.78c2.63,0.1,4.68,0.1,6.63-0.19c4.58-0.68,8.09-2.05,11.99-4.87
		c2.34-1.66,5.46-4.39,8.09-7.51c1.17-1.36,2.05-2.34,3.8-4.68c1.85,2.34,2.83,3.41,4,4.78c0.19,0.19,0.39,0.39,0.58,0.68
		c2.53,2.83,5.36,5.26,7.51,6.82c0.1,0.1,0.19,0.19,0.29,0.19l0.58,0.39c2.14,1.46,4.19,2.44,6.43,3.12
		c1.46,0.49,3.02,0.78,4.68,1.07c0.97,0.19,1.95,0.19,3.02,0.19c0.29,0,0.49,0,0.78,0l0,0h35.29v-1.36H147.7l0,0
		c-4.29-0.1-8.48-1.07-11.99-3.12c-0.1,0-0.19-0.1-0.19-0.1c-2.14-1.27-3.61-2.24-4.97-3.41c-1.66-1.36-3.12-2.83-4.97-4.97
		c-2.05-2.24-3.8-4.39-5.65-6.92c-1.85,2.53-3.51,4.68-5.56,6.92c-3.41,3.8-5.26,5.56-10.04,8.29h-0.1l0.49-2.24
		c0.58-0.39,1.07-0.68,1.56-1.07c2.53-1.95,4.78-3.9,7.51-7.02c2.53-2.83,4.48-5.36,6.34-8.38l0.29,0.49
		c1.75,2.83,3.51,5.36,5.85,8.09c0.49,0.58,0.97,1.07,1.36,1.56c2.14,2.24,4,3.9,6.14,5.56c1.66,1.27,3.9,2.53,5.75,3.31
		c0.19,0.1,0.39,0.19,0.58,0.19c2.24,0.78,4.87,1.27,7.7,1.27h35.29L183.09,63.76L183.09,63.76z M183.09,54.21h-35.68
		c-8.48-0.29-13.45-4.19-19.89-11.11c-1.75-1.85-3.22-3.9-4.58-6.04l-1.56-2.83l-0.29-0.49l0.29-0.58l1.46-2.44
		c1.36-2.14,3.12-4.29,4.78-6.14c3.22-3.51,6.04-6.24,9.16-8.09h-0.1c0.88-0.58,1.85-0.97,2.83-1.46c2.34-0.97,4.87-1.56,7.8-1.66
		h35.78L183.09,54.21L183.09,54.21z M94.57,22.52c0,0.58,0,1.27,0,1.85v2.05c-0.1,1.07-0.49,1.85-1.36,2.53c-0.1,0-0.1,0.1-0.19,0.1
		c-0.19,0.1-0.39,0.19-0.58,0.29c-0.39,0.1-0.78,0.19-1.07,0.19H78.87v-7.41c0-0.68,0.19-1.36,0.39-1.95
		c0.29-0.88,0.88-1.66,1.75-2.24c1.27-0.97,3.22-1.56,5.46-1.56c2.44,0,4.58,0.58,6.04,1.56c0.19,0.1,0.29,0.19,0.39,0.39
		c0.97,0.78,1.46,1.85,1.56,3.02v0.39C94.47,22.13,94.57,22.42,94.57,22.52z M140.19,16.48L140.19,16.48
		c-4.29,1.75-7.7,5.17-11.99,9.85l0,0c-1.36,1.46-2.63,3.12-3.7,4.78c-0.97,1.36-1.36,2.24-1.56,2.63l0.58,1.07l0,0
		c1.17,2.24,2.83,4.48,4.68,6.43c6.24,6.73,10.53,10.82,18.62,11.21h1.07h35.29v-1.46H147.8c-5.36-0.1-9.16-2.05-12.97-5.26
		c-1.85-1.56-3.61-3.51-5.56-5.75c-1.66-1.85-3.22-4.19-4.68-6.34c1.36-2.05,2.92-4.39,4.68-6.34c1.95-2.24,3.7-4.19,5.56-5.75
		c3.8-3.22,7.6-5.07,12.97-5.26h35.29v-1.46H147.8h-0.1h-0.88C144.19,15.21,142.14,15.7,140.19,16.48z"/>
	<path class="st0" d="M36.17,77.21c-0.29,0.19-0.97,0.39-1.95,0.39H30.9v-3.8h3.31c0.97,0,1.66,0.1,1.85,0.29
		c0.49,0.29,0.78,0.88,0.78,1.56S36.66,76.82,36.17,77.21z"/>
	<path class="st0" d="M100.03,73.7l-2.24,5.65h4.29L100.03,73.7z M100.03,73.7l-2.24,5.65h4.29L100.03,73.7z M100.03,73.7
		l-2.24,5.65h4.29L100.03,73.7z M137.46,73.7l-2.24,5.65h4.39L137.46,73.7z M137.46,73.7l-2.24,5.65h4.39L137.46,73.7z M100.03,73.7
		l-2.24,5.65h4.29L100.03,73.7z M100.03,73.7l-2.24,5.65h4.29L100.03,73.7z M137.46,73.7l-2.24,5.65h4.39L137.46,73.7z
		 M155.11,74.09c-0.29-0.19-0.88-0.29-1.85-0.29h-3.31v3.7h3.31c0.97,0,1.66-0.1,1.95-0.39c0.49-0.29,0.68-0.88,0.68-1.46
		C155.89,74.87,155.6,74.39,155.11,74.09z M155.11,74.09c-0.29-0.19-0.88-0.29-1.85-0.29h-3.31v3.7h3.31c0.97,0,1.66-0.1,1.95-0.39
		c0.49-0.29,0.68-0.88,0.68-1.46C155.89,74.87,155.6,74.39,155.11,74.09z M137.46,73.7l-2.24,5.65h4.39L137.46,73.7z M100.03,73.7
		l-2.24,5.65h4.29L100.03,73.7z M0,67.95v11.02C0,84.82,2.34,89.3,10.82,89.3h165.44c7.31,0,10.82-2.73,10.82-10.33V67.95H0z
		 M36.95,83.94c-0.1-0.1-0.1-0.19-0.1-0.39c0-0.19-0.1-0.58-0.1-1.27c-0.1-1.27-0.49-2.05-0.97-2.53c-0.58-0.49-1.56-0.68-2.92-0.68
		H31v4.97h-1.85v-11.7h5.26c1.56,0,2.63,0.19,3.22,0.58c0.39,0.29,0.68,0.68,0.97,1.07C38.8,74.48,39,74.97,39,75.46
		c0,0.97-0.29,1.75-0.97,2.34c-0.39,0.29-0.78,0.49-1.46,0.68c0.78,0.39,1.27,0.78,1.56,1.27c0.29,0.49,0.49,1.27,0.49,2.34
		c0,0.68,0.1,1.17,0.1,1.27c0,0.19,0.1,0.29,0.19,0.49h-1.95V83.94z M52.55,78.87h-6.92c0,0.88,0.19,1.56,0.58,2.24
		c0.29,0.49,0.68,0.88,1.07,1.07c0.49,0.19,1.07,0.29,1.85,0.29h3.51v1.46h-3.9c-0.97,0-1.75-0.1-2.34-0.29
		c-1.07-0.39-1.85-1.27-2.34-2.53c-0.29-0.68-0.39-1.56-0.39-2.63c0-1.36,0.19-2.53,0.68-3.41c0.49-0.97,1.07-1.66,1.85-2.05
		c0.78-0.39,1.85-0.58,3.12-0.58h3.31v1.36h-3.41c-0.58,0-1.07,0-1.46,0.1c-0.39,0.1-0.68,0.19-0.88,0.49
		c-0.39,0.29-0.68,0.68-0.88,1.17s-0.29,1.07-0.29,1.85h6.92v1.46H52.55z M67.95,83.94h-2.14l-5.95-9.26v9.26h-1.75v-11.6h2.24
		l5.85,9.26v-9.26h1.75C67.95,72.34,67.95,83.94,67.95,83.94z M82.67,73.8h-4v10.14h-1.85V73.8h-4v-1.46h9.85V73.8z M103.83,83.94
		l-1.17-3.02H97.2l-1.27,3.02h-1.95l4.78-11.6h2.44l4.58,11.6H103.83z M127.13,83.94h-3.61c-1.07,0-1.85-0.1-2.44-0.29
		c-1.17-0.29-2.14-1.17-2.63-2.44c-0.39-0.88-0.58-1.95-0.58-3.02c0-1.36,0.29-2.53,0.88-3.61c0.49-0.88,1.07-1.46,1.75-1.75
		c0.68-0.29,1.75-0.49,3.02-0.49h3.7v1.46h-3.61c-0.78,0-1.36,0.1-1.75,0.19c-0.39,0.1-0.78,0.39-0.97,0.68
		c-0.29,0.39-0.58,0.88-0.68,1.46c-0.19,0.58-0.29,1.36-0.29,2.05c0,1.46,0.29,2.53,0.97,3.31c0.29,0.39,0.68,0.58,1.07,0.68
		c0.39,0.1,1.07,0.19,1.85,0.19h3.51v1.56H127.13z M141.36,83.94l-1.17-3.02h-5.46l-1.27,3.02h-1.95l4.78-11.6h2.44l4.58,11.6
		H141.36z M155.99,83.94c-0.1-0.1-0.1-0.19-0.1-0.39c0-0.19-0.1-0.58-0.1-1.27c-0.1-1.27-0.49-2.05-0.97-2.53
		c-0.49-0.49-1.56-0.68-2.92-0.68h-1.85v4.97h-1.85v-11.7h5.26c1.56,0,2.53,0.19,3.22,0.58c0.39,0.29,0.68,0.68,0.97,1.07
		c0.19,0.49,0.29,0.97,0.29,1.46c0,0.97-0.29,1.75-0.97,2.34c-0.39,0.29-0.88,0.49-1.46,0.68c0.78,0.39,1.27,0.78,1.56,1.27
		c0.29,0.49,0.49,1.27,0.49,2.34c0,0.68,0.1,1.17,0.1,1.27c0,0.19,0.1,0.29,0.19,0.49h-1.85V83.94z M155.89,75.65
		c0-0.78-0.19-1.27-0.78-1.56c-0.29-0.19-0.88-0.29-1.85-0.29h-3.31v3.7h3.31c0.97,0,1.66-0.1,1.95-0.39
		C155.69,76.82,155.89,76.34,155.89,75.65z M135.22,79.46h4.39l-2.14-5.65L135.22,79.46z M97.78,79.46h4.29l-2.14-5.65L97.78,79.46z
		 M100.03,73.7l-2.24,5.65h4.29L100.03,73.7z M137.46,73.7l-2.24,5.65h4.39L137.46,73.7z M155.11,74.09
		c-0.29-0.19-0.88-0.29-1.85-0.29h-3.31v3.7h3.31c0.97,0,1.66-0.1,1.95-0.39c0.49-0.29,0.68-0.88,0.68-1.46
		C155.89,74.87,155.6,74.39,155.11,74.09z M155.11,74.09c-0.29-0.19-0.88-0.29-1.85-0.29h-3.31v3.7h3.31c0.97,0,1.66-0.1,1.95-0.39
		c0.49-0.29,0.68-0.88,0.68-1.46C155.89,74.87,155.6,74.39,155.11,74.09z M137.46,73.7l-2.24,5.65h4.39L137.46,73.7z M100.03,73.7
		l-2.24,5.65h4.29L100.03,73.7z M100.03,73.7l-2.24,5.65h4.29L100.03,73.7z M100.03,73.7l-2.24,5.65h4.29L100.03,73.7z"/>
	<path class="st0" d="M176.17,0H10.82C3.12,0,0,3.61,0,10.33v55.96h186.99V10.33C186.99,3.41,184.16,0,176.17,0z M183.09,63.76H3.9
		v-50.7c0-7.7,2.44-9.46,10.33-9.46h158.52c6.63,0,9.16,1.66,10.04,5.36l0,0c0.1,0.39,0.19,0.88,0.19,1.36
		c0.1,0.49,0.1,1.07,0.1,1.66c0,0.39,0,0.78,0,1.17L183.09,63.76L183.09,63.76z"/>
	<g>
		<path class="st0" d="M66.2,57.23v1.56h-7.6v-1.56l0,0V20.47c0-1.27-0.88-2.24-1.95-3.12c-1.07-0.88-2.92-0.97-4-0.97
			c-1.07,0-3.31,0.19-4.48,1.46c-1.07,1.17-1.95,2.53-1.95,3.9v35.39v1.56H39v-7.7V21.84c0-1.36-0.88-2.83-1.95-3.9
			c-1.07-1.17-3.02-1.46-4.19-1.46h-0.19c-1.07,0-2.92,0.1-4,0.97c-0.88,0.68-1.56,1.46-1.85,2.44c0,0.19-0.1,0.49-0.1,0.68v38.22
			h-7.51v-1.56V20.57c0-3.12,0.97-5.46,3.31-7.51c0.97-0.88,2.24-1.75,3.51-2.53c1.75-0.97,4-1.46,6.73-1.46
			c2.34,0,4.97,0.68,6.92,1.75c0.39,0.19,0.78,0.49,1.17,0.78c0.97,0.78,1.66,1.46,1.85,1.75l0,0c0,0,0.78-0.97,1.95-1.85
			c0.39-0.29,0.78-0.49,1.17-0.78c1.95-1.07,4.58-1.75,6.92-1.75c2.63,0,4.87,0.49,6.73,1.46c1.36,0.68,2.53,1.56,3.51,2.53
			c2.24,2.14,3.31,4.39,3.31,7.51L66.2,57.23z"/>
		<path class="st0" d="M182.99,10.33h-35c-3.02,0.1-6.04,0.58-8.77,1.66c-1.17,0.39-2.24,0.88-3.31,1.56c-0.1,0-0.1,0.1-0.19,0.1
			c-0.88,0.49-1.75,1.07-2.44,1.56c-0.78,0.49-1.36,0.97-2.05,1.46h0.1c-0.19,0.1-0.39,0.29-0.58,0.39
			c-1.66,1.36-3.12,2.83-4.97,4.97c-2.05,2.24-4,4.39-5.56,7.12c0,0.1,0,0.1,0,0.1v-0.1l-0.78-1.56L109.19,9.16h1.66l9.46,17.06
			c1.75-2.24,2.73-3.22,3.9-4.58c0.19-0.19,0.39-0.39,0.58-0.68c1.46-1.56,3.02-3.12,4.48-4.39h-0.1c0.58-0.49,1.17-0.97,1.75-1.46
			c0.49-0.39,0.97-0.78,1.36-1.07c0.1-0.1,0.19-0.19,0.29-0.19l0.58-0.39c0.88-0.58,1.75-1.07,2.53-1.56
			c1.27-0.68,2.53-1.17,3.8-1.66l0,0c1.46-0.49,3.02-0.78,4.68-1.07c0.97-0.19,1.95-0.19,3.02-0.19c0.19,0,0.49,0,0.78,0h34.8l0,0
			L182.99,10.33z"/>
		<path class="st0" d="M183.09,51.18v1.46H147.8h-1.07c-8.09-0.39-12.38-4.48-18.62-11.21c-1.85-2.05-3.51-4.19-4.68-6.43l0,0
			l-0.58-1.07c0.19-0.39,0.68-1.27,1.56-2.63c1.07-1.66,2.34-3.22,3.7-4.78l0,0c4.39-4.68,7.7-7.99,12.09-9.85h-0.1
			c1.95-0.78,4-1.27,6.53-1.36h0.88h0.1h35.29v1.46H147.6c-5.36,0.1-9.26,2.05-12.97,5.26c-1.85,1.56-3.61,3.51-5.56,5.75
			c-1.66,1.85-3.31,4.19-4.68,6.34c1.36,2.05,2.92,4.39,4.68,6.34c1.95,2.24,3.7,4.19,5.56,5.75c3.8,3.22,7.6,5.17,12.97,5.26h35.49
			V51.18z"/>
		<path class="st0" d="M147.31,13.45h35.78v-1.46H147.7c-2.92,0-5.46,0.49-7.7,1.27c-0.19,0.1-0.39,0.19-0.58,0.19
			c-1.07,0.39-2.24,0.97-3.31,1.66c-0.78,0.49-1.56,0.97-2.14,1.46h0.1c-0.1,0.1-0.19,0.19-0.29,0.19c-2.05,1.56-4,3.22-6.14,5.46
			c-0.49,0.49-0.88,0.97-1.36,1.56c-2.34,2.73-4.19,5.26-5.95,8.09l-0.1,0.29l-0.19-0.29L107.34,9.07h-1.66l13.55,24.47l0.1,0.19
			l-0.1,0.29c-1.66,3.12-4.09,6.14-6.63,8.97c-3.02,3.22-5.65,5.75-8.48,7.6l-2.14-0.49c3.41-1.95,6.34-4.87,9.94-8.77
			c2.14-2.34,4.39-4.78,5.65-7.41l-0.68-1.27L103.73,9.07h-1.66l13.94,24.96c-1.46,2.14-3.31,4.19-5.07,6.14
			c-1.95,2.24-3.7,4.19-5.56,5.75c-4.19,3.61-8.58,5.56-15.11,5.26c-0.19,0-0.29,0-0.49,0c-1.46-0.19-2.83-0.49-4-0.78
			c-2.34-0.78-4.09-1.75-4.87-2.44c-1.36-1.17-1.95-4-1.95-5.95v-4.48h18.52c0.68,0,1.95-0.39,3.02-1.17s2.05-2.05,2.05-3.9v-0.19
			c0-1.75,0-3.41,0-5.17c0-0.1,0-0.19,0-0.29v-4.58l0,0c0-3.12-1.66-6.63-4.29-8.77c-3.02-2.34-7.21-4.19-11.6-4.19
			c-4.48,0-8.38,1.46-11.41,3.8c-2.92,2.24-4.39,6.04-4.39,9.46v19.6c0,3.61,0.88,7.9,3.61,10.53c2.53,2.44,5.85,4.48,9.85,5.36
			c2.05,0.49,3.31,0.68,4.87,0.78c2.63,0.1,4.68,0.1,6.63-0.19c4.58-0.68,8.09-2.05,11.99-4.87c2.34-1.66,5.46-4.39,8.09-7.51
			c1.17-1.36,2.05-2.34,3.8-4.68c1.85,2.34,2.83,3.41,4,4.78c0.19,0.19,0.39,0.39,0.58,0.68c2.53,2.83,5.36,5.26,7.51,6.82
			c0.1,0.1,0.19,0.19,0.29,0.19l0.58,0.39c2.14,1.46,4.19,2.44,6.43,3.12c1.46,0.49,3.02,0.78,4.68,1.07
			c0.97,0.19,1.95,0.19,3.02,0.19c0.29,0,0.49,0,0.78,0l0,0h35.29v-1.36H147.6l0,0c-4.29-0.1-8.48-1.07-11.99-3.12
			c-0.1,0-0.19-0.1-0.19-0.1c-2.14-1.27-3.61-2.24-4.97-3.41c-1.66-1.36-3.12-2.83-4.97-4.97c-2.05-2.24-3.8-4.39-5.65-6.92
			c-1.85,2.53-3.51,4.68-5.56,6.92c-3.41,3.8-5.26,5.56-10.04,8.29h-0.1l0.49-2.24c0.58-0.39,1.07-0.68,1.56-1.07
			c2.53-1.95,4.78-3.9,7.51-7.02c2.53-2.83,4.48-5.36,6.34-8.38l0.29,0.49c1.75,2.83,3.51,5.36,5.85,8.09
			c0.49,0.58,0.97,1.07,1.36,1.56c2.14,2.24,4,3.9,6.14,5.56c1.66,1.27,3.9,2.53,5.75,3.31c0.19,0.1,0.39,0.19,0.58,0.19
			c2.24,0.78,4.87,1.27,7.7,1.27h35.29V54.3h-35.78c-8.48-0.29-13.45-4.19-19.89-11.11c-1.75-1.85-3.22-3.9-4.58-6.04l-1.56-2.83
			l-0.29-0.49l0.29-0.58l1.46-2.44c1.36-2.14,3.12-4.29,4.78-6.14c3.22-3.51,6.04-6.24,9.16-8.09h-0.1
			c0.88-0.58,1.85-0.97,2.83-1.46C141.85,14.14,144.29,13.55,147.31,13.45z M78.87,22.33c0-0.68,0.19-1.36,0.39-1.95
			c0.29-0.88,0.88-1.66,1.75-2.24c1.27-0.97,3.22-1.56,5.46-1.56c2.44,0,4.58,0.58,6.04,1.56c0.19,0.1,0.29,0.19,0.39,0.39
			c0.97,0.78,1.46,1.85,1.56,3.02v0.39c0,0.29,0,0.49,0,0.68c0,0.58,0,1.27,0,1.85v2.05c-0.1,1.07-0.49,1.85-1.36,2.53
			c-0.1,0-0.1,0.1-0.19,0.1c-0.19,0.1-0.39,0.19-0.58,0.29c-0.39,0.1-0.78,0.19-1.07,0.19H78.87V22.33z"/>
	</g>
</g>
</svg>
